<svg width="428" height="255" viewBox="0 0 428 255" fill="none" xmlns="http://www.w3.org/2000/svg">
<rect x="41.7115" y="1.84081" width="397.371" height="152.068" rx="76.0341" transform="rotate(15.2 41.7115 1.84081)" fill="#94E1FF" stroke="#400E22" stroke-width="3"/>
<path d="M349.187 138.877L349.233 138.793L338.02 177.273L329.422 161.644C329.002 160.879 328.295 160.321 327.454 160.075C326.612 159.83 325.721 159.923 324.955 160.342L322.524 161.676C321.759 162.095 321.202 162.789 320.957 163.63C320.712 164.471 320.807 165.355 321.226 166.12L335.918 192.897C336.339 193.665 337.036 194.22 337.879 194.463C338.725 194.712 339.611 194.618 340.378 194.197L367.156 179.503C367.92 179.084 368.475 178.39 368.721 177.548C368.966 176.707 368.87 175.823 368.451 175.059L367.117 172.628C366.698 171.863 366.004 171.308 365.162 171.063C364.321 170.818 363.479 170.925 362.715 171.345L346.959 180.026L358.198 141.456C358.703 139.723 357.634 137.832 355.901 137.327L353.238 136.551C351.506 136.046 349.692 137.144 349.187 138.877Z" fill="#410F22"/>
<path d="M157.516 106.736C154.432 105.898 152.245 104.47 150.955 102.451C149.666 100.432 149.393 97.8797 150.135 94.7929C150.29 94.1338 150.538 93.1738 150.881 91.9128C151.23 90.6294 151.504 89.6642 151.704 89.0173C152.608 86.047 154.155 84.0012 156.346 82.8796C158.536 81.7581 161.129 81.6042 164.124 82.4179C167.096 83.2255 169.243 84.6672 170.565 86.7432C171.91 88.8252 172.22 91.3758 171.496 94.395C171.187 95.7133 170.946 96.6876 170.775 97.3181C170.61 97.926 170.327 98.8769 169.927 100.171C169.005 103.208 167.466 105.269 165.31 106.351C163.177 107.44 160.579 107.568 157.516 106.736ZM158.581 102.818C160.09 103.228 161.405 103.102 162.528 102.44C163.651 101.778 164.5 100.522 165.076 98.6711C165.488 97.3323 165.758 96.4265 165.886 95.9537C166.027 95.4358 166.252 94.5177 166.562 93.1995C166.996 91.3347 166.885 89.8297 166.229 88.6843C165.58 87.5163 164.523 86.7336 163.059 86.3359C161.573 85.9321 160.254 86.0694 159.103 86.7479C157.957 87.4039 157.111 88.6489 156.565 90.4831C156.365 91.13 156.106 92.0389 155.788 93.2097C155.476 94.3581 155.239 95.2731 155.078 95.9547C154.621 97.8134 154.707 99.3236 155.334 100.485C155.99 101.631 157.072 102.408 158.581 102.818ZM190.479 105.465C190.389 105.972 190.305 106.372 190.225 106.665C190.146 106.958 190.029 107.301 189.873 107.694C189.149 109.915 187.889 111.483 186.093 112.397C184.297 113.311 182.082 113.411 179.447 112.695C176.655 111.936 174.768 110.65 173.786 108.836C172.81 106.999 172.655 104.635 173.319 101.745L173.836 99.7094L174.42 97.692C175.356 94.5129 176.503 92.2495 177.861 90.9016C179.219 89.5537 180.873 88.7581 182.825 88.5148C184.784 88.2489 187.862 88.1785 192.059 88.3034L192.271 88.3247C192.451 88.3736 192.59 88.484 192.689 88.6558C192.816 88.8112 192.866 88.9821 192.839 89.1683L192.664 91.5506L192.642 91.7624C192.593 91.9426 192.494 92.0849 192.345 92.1894C192.196 92.2939 192.025 92.3442 191.833 92.3403C191.358 92.308 190.999 92.295 190.755 92.3014C187.871 92.1466 185.786 92.124 184.499 92.2337C183.24 92.327 182.191 92.7189 181.351 93.4093C180.516 94.0773 179.818 95.2659 179.257 96.9752C179.981 96.4466 180.837 96.0989 181.826 95.9322C182.836 95.7716 183.837 95.8259 184.828 96.0951C187.192 96.7375 188.85 97.8891 189.801 99.5499C190.752 101.211 190.978 103.182 190.479 105.465ZM185.258 106.258C185.324 106.107 185.414 105.817 185.531 105.389C185.659 104.917 185.74 104.576 185.772 104.367C186.106 102.959 186.059 101.797 185.631 100.883C185.225 99.9748 184.481 99.3738 183.4 99.0802C182.184 98.7498 181.112 98.8695 180.184 99.4393C179.261 99.9866 178.591 100.941 178.173 102.302L177.864 103.306L177.659 104.194C177.318 105.624 177.374 106.8 177.825 107.721C178.282 108.619 179.107 109.23 180.301 109.554C181.494 109.878 182.504 109.766 183.33 109.216C184.185 108.651 184.828 107.665 185.258 106.258ZM212.116 125.633C211.891 125.572 211.721 125.441 211.606 125.241C211.491 125.04 211.464 124.828 211.525 124.602L212.425 121.292L192.565 115.896C192.34 115.835 192.17 115.704 192.055 115.504C191.94 115.304 191.913 115.091 191.974 114.866L196.306 98.9235C196.373 98.6758 196.504 98.5059 196.698 98.4136C196.899 98.2988 197.112 98.272 197.337 98.3332L200.039 99.0673C200.287 99.1346 200.468 99.2685 200.583 99.4689C200.697 99.6694 200.724 99.8822 200.663 100.107L197.093 113.246L202.058 114.595L205.628 101.456C205.689 101.231 205.82 101.061 206.02 100.946C206.221 100.832 206.434 100.805 206.659 100.866L209.192 101.554C209.417 101.615 209.587 101.746 209.702 101.947C209.817 102.147 209.844 102.36 209.782 102.585L206.213 115.724L211.178 117.073L214.747 103.934C214.809 103.709 214.939 103.539 215.14 103.424C215.34 103.309 215.564 103.286 215.812 103.353L218.514 104.087C218.762 104.154 218.932 104.285 219.024 104.48C219.145 104.658 219.172 104.87 219.104 105.118L215.535 118.257L217.054 118.67C217.302 118.737 217.472 118.868 217.564 119.062C217.685 119.24 217.712 119.453 217.645 119.7L215.984 125.814C215.923 126.039 215.792 126.209 215.591 126.324C215.391 126.439 215.178 126.465 214.953 126.404L212.116 125.633ZM224.964 125.062C223.815 124.75 222.818 124.237 221.972 123.524C221.155 122.794 220.572 121.959 220.223 121.018C219.897 120.083 219.862 119.142 220.119 118.197C220.535 116.666 221.491 115.595 222.986 114.986C224.482 114.377 226.356 114.197 228.61 114.447L233.42 115.028L233.613 114.319C233.876 113.351 233.827 112.552 233.467 111.922C233.106 111.292 232.385 110.83 231.304 110.536C230.561 110.334 229.928 110.307 229.404 110.455C228.88 110.603 228.432 110.784 228.06 110.997C227.716 111.194 227.487 111.325 227.373 111.39C227.209 111.636 227.004 111.725 226.756 111.658L224.121 110.942C223.919 110.887 223.757 110.771 223.636 110.593C223.538 110.421 223.519 110.222 223.58 109.997C223.756 109.44 224.197 108.883 224.905 108.326C225.641 107.752 226.631 107.356 227.875 107.138C229.125 106.898 230.561 106.998 232.182 107.438C234.839 108.16 236.614 109.283 237.505 110.807C238.397 112.33 238.58 114.061 238.053 115.997L235.172 126.603C235.111 126.828 234.98 126.998 234.779 127.113C234.602 127.233 234.389 127.26 234.141 127.193L231.338 126.431C231.113 126.37 230.943 126.239 230.828 126.039C230.713 125.838 230.686 125.626 230.747 125.4L231.105 124.083C230.414 124.669 229.554 125.076 228.525 125.304C227.502 125.51 226.315 125.429 224.964 125.062ZM226.993 122.132C228.231 122.468 229.355 122.338 230.363 121.742C231.372 121.145 232.084 120.081 232.5 118.55L232.683 117.875L229.159 117.497C226.459 117.199 224.929 117.714 224.568 119.043C224.372 119.763 224.512 120.406 224.987 120.97C225.491 121.518 226.16 121.905 226.993 122.132ZM258.14 114.854C258.388 114.921 258.558 115.052 258.65 115.246C258.771 115.424 258.798 115.637 258.731 115.885L254.399 131.827C254.338 132.052 254.207 132.222 254.007 132.337C253.829 132.458 253.616 132.484 253.368 132.417L250.43 131.619C250.205 131.557 250.035 131.427 249.92 131.226C249.805 131.026 249.778 130.813 249.839 130.588L251.234 125.454L248.228 124.637L243.475 129.185C243.18 129.468 242.853 129.56 242.493 129.462L239.588 128.673C239.408 128.624 239.268 128.514 239.17 128.342C239.072 128.17 239.047 127.994 239.096 127.814C239.151 127.611 239.267 127.449 239.445 127.328L244.497 122.753C243.561 122.015 242.942 121.134 242.64 120.109C242.338 119.084 242.35 117.974 242.674 116.781C243.188 114.89 244.159 113.63 245.587 113.002C247.043 112.358 248.908 112.345 251.183 112.963L258.14 114.854ZM253.578 117.096L250.403 116.233C249.345 115.946 248.527 115.929 247.95 116.183C247.379 116.415 246.972 116.982 246.727 117.882C246.501 118.715 246.56 119.433 246.904 120.034C247.248 120.635 247.882 121.061 248.805 121.312L252.183 122.23L253.578 117.096ZM105.415 128.849C102.938 128.176 101.144 126.951 100.031 125.174C98.9402 123.402 98.6803 121.289 99.251 118.832L99.5843 117.472L99.9852 116.13C100.736 113.723 102.03 112.031 103.867 111.055C105.726 110.086 107.894 109.937 110.371 110.61C112.15 111.094 113.561 111.816 114.606 112.777C115.673 113.743 116.374 114.768 116.709 115.85C117.072 116.916 117.163 117.872 116.982 118.717C116.943 118.948 116.812 119.118 116.589 119.227C116.389 119.342 116.176 119.369 115.951 119.308L112.945 118.491C112.697 118.424 112.529 118.33 112.441 118.209C112.359 118.066 112.298 117.844 112.259 117.543C112.154 116.596 111.872 115.854 111.413 115.318C110.977 114.789 110.33 114.408 109.475 114.175C108.326 113.863 107.328 113.979 106.479 114.522C105.653 115.071 105.015 116.083 104.567 117.556L104.193 118.797L103.924 119.921C103.264 122.885 104.105 124.685 106.446 125.321C107.325 125.56 108.083 125.572 108.721 125.359C109.366 125.123 109.976 124.612 110.552 123.825C110.71 123.602 110.86 123.449 111.003 123.367C111.169 123.291 111.375 123.287 111.623 123.354L114.629 124.171C114.854 124.232 115.024 124.363 115.139 124.564C115.276 124.77 115.303 124.983 115.22 125.202C114.96 125.978 114.413 126.748 113.576 127.512C112.746 128.254 111.634 128.786 110.241 129.108C108.848 129.431 107.239 129.345 105.415 128.849ZM122.573 133.148C122.347 133.087 122.178 132.956 122.063 132.756C121.948 132.555 121.921 132.342 121.982 132.117L125.552 118.979L120.081 117.492C119.855 117.431 119.685 117.3 119.571 117.099C119.456 116.899 119.429 116.686 119.49 116.461L120.032 114.468C120.099 114.221 120.23 114.051 120.424 113.958C120.624 113.844 120.837 113.817 121.062 113.878L136.43 118.053C136.678 118.121 136.848 118.252 136.94 118.446C137.061 118.624 137.088 118.837 137.021 119.084L136.479 121.077C136.418 121.302 136.287 121.472 136.087 121.587C135.909 121.708 135.696 121.735 135.448 121.667L129.977 120.181L126.407 133.319C126.346 133.545 126.215 133.715 126.014 133.829C125.837 133.95 125.624 133.977 125.376 133.91L122.573 133.148ZM140.188 138.297C139.039 137.985 138.042 137.472 137.196 136.759C136.379 136.029 135.796 135.193 135.447 134.252C135.121 133.318 135.086 132.377 135.343 131.431C135.759 129.9 136.715 128.83 138.21 128.221C139.706 127.612 141.58 127.432 143.834 127.681L148.644 128.263L148.837 127.554C149.1 126.586 149.051 125.787 148.691 125.157C148.33 124.527 147.609 124.065 146.528 123.771C145.785 123.569 145.152 123.542 144.628 123.69C144.104 123.838 143.656 124.018 143.284 124.232C142.94 124.428 142.711 124.56 142.597 124.625C142.433 124.871 142.228 124.96 141.98 124.893L139.345 124.177C139.143 124.122 138.981 124.005 138.86 123.828C138.762 123.656 138.743 123.457 138.804 123.232C138.98 122.675 139.421 122.118 140.129 121.561C140.865 120.987 141.855 120.591 143.099 120.373C144.349 120.133 145.785 120.232 147.406 120.673C150.063 121.395 151.838 122.518 152.729 124.042C153.621 125.565 153.804 127.295 153.277 129.232L150.396 139.837C150.335 140.063 150.204 140.233 150.003 140.347C149.826 140.468 149.613 140.495 149.365 140.428L146.562 139.666C146.337 139.605 146.167 139.474 146.052 139.274C145.937 139.073 145.91 138.86 145.971 138.635L146.329 137.318C145.638 137.904 144.778 138.311 143.749 138.539C142.726 138.745 141.539 138.664 140.188 138.297ZM142.217 135.366C143.455 135.703 144.579 135.573 145.587 134.976C146.596 134.38 147.308 133.316 147.724 131.785L147.907 131.109L144.383 130.732C141.683 130.434 140.153 130.949 139.792 132.278C139.596 132.998 139.736 133.641 140.211 134.205C140.715 134.753 141.384 135.14 142.217 135.366ZM159.844 143.275C159.619 143.214 159.449 143.083 159.334 142.883C159.22 142.682 159.193 142.469 159.254 142.244L162.824 129.106L157.352 127.619C157.127 127.558 156.957 127.427 156.842 127.226C156.728 127.026 156.701 126.813 156.762 126.588L157.303 124.595C157.371 124.348 157.501 124.178 157.696 124.085C157.896 123.97 158.109 123.944 158.334 124.005L173.702 128.18C173.95 128.248 174.12 128.379 174.212 128.573C174.333 128.751 174.36 128.964 174.292 129.211L173.751 131.204C173.69 131.429 173.559 131.599 173.359 131.714C173.181 131.835 172.968 131.862 172.72 131.794L167.248 130.308L163.679 143.446C163.617 143.672 163.487 143.842 163.286 143.956C163.108 144.077 162.895 144.104 162.648 144.037L159.844 143.275ZM193.267 133.496C193.469 133.551 193.628 133.679 193.743 133.879C193.864 134.057 193.897 134.248 193.841 134.45L189.492 150.46C189.43 150.685 189.3 150.855 189.099 150.97C188.921 151.091 188.708 151.118 188.461 151.05L185.59 150.27C185.365 150.209 185.195 150.078 185.08 149.878C184.965 149.677 184.938 149.465 184.999 149.239L187.927 138.465L176.921 147.335C176.576 147.628 176.211 147.722 175.829 147.618L173.228 146.911C173.003 146.85 172.83 146.731 172.709 146.553C172.617 146.358 172.601 146.149 172.662 145.924L177.003 129.948C177.07 129.7 177.201 129.53 177.395 129.438C177.596 129.323 177.809 129.296 178.034 129.357L180.905 130.137C181.13 130.199 181.3 130.329 181.415 130.53C181.529 130.73 181.556 130.943 181.495 131.168L178.568 141.943L189.573 133.073C189.941 132.786 190.306 132.692 190.666 132.79L193.267 133.496ZM201.036 154.83C198.559 154.157 196.764 152.931 195.651 151.154C194.56 149.383 194.301 147.269 194.871 144.813L195.205 143.453L195.605 142.111C196.356 139.703 197.65 138.012 199.487 137.036C201.346 136.066 203.514 135.918 205.991 136.591C207.77 137.074 209.182 137.796 210.226 138.757C211.293 139.724 211.994 140.749 212.329 141.831C212.692 142.897 212.783 143.852 212.602 144.698C212.563 144.929 212.432 145.099 212.209 145.208C212.009 145.322 211.796 145.349 211.571 145.288L208.565 144.471C208.317 144.404 208.149 144.31 208.061 144.189C207.979 144.046 207.919 143.824 207.879 143.523C207.774 142.576 207.492 141.834 207.033 141.299C206.597 140.769 205.951 140.388 205.095 140.156C203.947 139.844 202.948 139.959 202.099 140.502C201.273 141.051 200.636 142.063 200.187 143.537L199.813 144.777L199.544 145.901C198.884 148.865 199.725 150.665 202.067 151.302C202.945 151.54 203.703 151.553 204.341 151.339C204.986 151.103 205.596 150.592 206.172 149.806C206.33 149.583 206.48 149.43 206.623 149.348C206.789 149.272 206.996 149.268 207.243 149.335L210.249 150.152C210.475 150.213 210.645 150.344 210.759 150.544C210.897 150.751 210.923 150.964 210.84 151.183C210.581 151.959 210.033 152.728 209.197 153.493C208.366 154.234 207.255 154.766 205.861 155.089C204.468 155.412 202.859 155.325 201.036 154.83ZM218.193 159.129C217.968 159.067 217.798 158.937 217.683 158.736C217.568 158.536 217.541 158.323 217.603 158.098L221.172 144.959L215.701 143.472C215.476 143.411 215.306 143.28 215.191 143.08C215.076 142.88 215.049 142.667 215.11 142.442L215.652 140.449C215.719 140.201 215.85 140.031 216.044 139.939C216.245 139.824 216.458 139.797 216.683 139.858L232.051 144.034C232.298 144.101 232.468 144.232 232.56 144.426C232.681 144.604 232.708 144.817 232.641 145.065L232.099 147.058C232.038 147.283 231.907 147.453 231.707 147.568C231.529 147.688 231.316 147.715 231.069 147.648L225.597 146.161L222.027 159.3C221.966 159.525 221.835 159.695 221.635 159.81C221.457 159.931 221.244 159.958 220.996 159.89L218.193 159.129ZM251.615 149.35C251.818 149.405 251.976 149.533 252.091 149.733C252.212 149.911 252.245 150.101 252.19 150.304L247.84 166.313C247.779 166.539 247.648 166.709 247.448 166.823C247.27 166.944 247.057 166.971 246.809 166.904L243.938 166.124C243.713 166.063 243.543 165.932 243.428 165.731C243.314 165.531 243.287 165.318 243.348 165.093L246.275 154.319L235.27 163.188C234.924 163.481 234.56 163.576 234.177 163.472L231.576 162.765C231.351 162.704 231.178 162.584 231.057 162.406C230.965 162.212 230.949 162.002 231.011 161.777L235.351 145.801C235.419 145.554 235.549 145.384 235.744 145.291C235.944 145.177 236.157 145.15 236.382 145.211L239.253 145.991C239.478 146.052 239.648 146.183 239.763 146.383C239.878 146.584 239.905 146.797 239.844 147.022L236.916 157.796L247.922 148.927C248.29 148.64 248.654 148.545 249.014 148.643L251.615 149.35ZM268.407 171.648C268.477 171.836 268.493 171.998 268.456 172.133C268.407 172.313 268.3 172.441 268.134 172.517C267.969 172.593 267.785 172.603 267.582 172.548L264.103 171.603C263.878 171.541 263.707 171.459 263.59 171.355C263.479 171.228 263.381 171.056 263.295 170.839L260.694 163.06L258.228 162.39L256.521 168.672C256.46 168.897 256.329 169.067 256.129 169.182C255.951 169.303 255.738 169.33 255.49 169.263L252.687 168.501C252.462 168.44 252.292 168.309 252.177 168.108C252.062 167.908 252.035 167.695 252.097 167.47L256.428 151.528C256.495 151.28 256.626 151.11 256.82 151.018C257.021 150.903 257.234 150.876 257.459 150.938L260.262 151.699C260.51 151.767 260.68 151.897 260.772 152.092C260.893 152.27 260.92 152.482 260.853 152.73L259.219 158.742L261.719 159.421L267.445 154.231C267.629 154.088 267.801 153.989 267.96 153.936C268.12 153.883 268.301 153.883 268.503 153.938L271.611 154.783C271.836 154.844 272.001 154.949 272.105 155.098C272.21 155.248 272.238 155.412 272.189 155.593C272.17 155.66 272.074 155.791 271.901 155.986L265.085 162.113L268.407 171.648ZM276.246 175.265C275.098 174.953 274.101 174.44 273.255 173.727C272.438 172.997 271.855 172.161 271.506 171.22C271.179 170.285 271.145 169.345 271.402 168.399C271.818 166.868 272.773 165.798 274.269 165.189C275.764 164.58 277.639 164.4 279.892 164.649L284.703 165.231L284.896 164.522C285.159 163.553 285.11 162.754 284.749 162.124C284.388 161.494 283.667 161.033 282.587 160.739C281.844 160.537 281.21 160.51 280.686 160.658C280.163 160.806 279.715 160.986 279.342 161.199C278.999 161.396 278.77 161.527 278.655 161.593C278.492 161.839 278.286 161.928 278.038 161.861L275.404 161.145C275.201 161.09 275.039 160.973 274.919 160.795C274.82 160.624 274.802 160.425 274.863 160.2C275.038 159.643 275.48 159.086 276.187 158.529C276.923 157.955 277.914 157.559 279.158 157.341C280.408 157.1 281.843 157.2 283.465 157.641C286.122 158.363 287.896 159.486 288.788 161.009C289.679 162.533 289.862 164.263 289.336 166.2L286.454 176.805C286.393 177.03 286.262 177.2 286.062 177.315C285.884 177.436 285.671 177.463 285.424 177.396L282.62 176.634C282.395 176.573 282.225 176.442 282.11 176.241C281.995 176.041 281.969 175.828 282.03 175.603L282.388 174.286C281.697 174.872 280.836 175.279 279.807 175.507C278.784 175.713 277.597 175.632 276.246 175.265ZM278.275 172.334C279.514 172.671 280.637 172.541 281.646 171.944C282.654 171.348 283.366 170.284 283.782 168.753L283.966 168.077L280.441 167.7C277.742 167.402 276.212 167.917 275.851 169.245C275.655 169.966 275.795 170.608 276.27 171.173C276.774 171.721 277.442 172.108 278.275 172.334Z" fill="#400E22"/>
</svg>
