<svg width="217" height="217" viewBox="0 0 217 217" fill="none" xmlns="http://www.w3.org/2000/svg">
<path d="M105.856 170.687C139.091 170.687 166.033 143.745 166.033 110.51C166.033 77.2748 139.091 50.3325 105.856 50.3325C72.6211 50.3325 45.6788 77.2748 45.6788 110.51C45.6788 143.745 72.6211 170.687 105.856 170.687Z" fill="#FFF6E6"/>
<path d="M86.7135 125.316C92.7881 125.316 97.7125 116.888 97.7125 106.491C97.7125 96.0939 92.7881 87.6655 86.7135 87.6655C80.6389 87.6655 75.7145 96.0939 75.7145 106.491C75.7145 116.888 80.6389 125.316 86.7135 125.316Z" fill="white" stroke="#400E22" stroke-width="3" stroke-miterlimit="10"/>
<path d="M91.6842 89.8862C88.7229 92.5302 86.6077 97.3952 85.9731 103.212L90.8381 105.962L85.8674 108.817C86.2904 115.057 88.5114 120.239 91.5784 123.095C95.0685 119.922 97.3952 113.682 97.3952 106.491C97.5009 99.2988 95.1742 92.9533 91.6842 89.8862Z" fill="#400E22"/>
<path d="M130.71 125.316C136.842 125.316 141.814 116.888 141.814 106.491C141.814 96.0939 136.842 87.6655 130.71 87.6655C124.577 87.6655 119.605 96.0939 119.605 106.491C119.605 116.888 124.577 125.316 130.71 125.316Z" fill="white" stroke="#400E22" stroke-width="3" stroke-miterlimit="10"/>
<path d="M125.527 123.095C128.489 120.451 130.71 115.586 131.344 109.769L126.373 107.019L131.344 104.164C130.921 97.924 128.594 92.7417 125.527 89.8862C122.037 93.059 119.605 99.2988 119.605 106.491C119.605 113.682 122.037 119.922 125.527 123.095Z" fill="#400E22"/>
<path d="M108.5 2C49.6976 2 2 49.6976 2 108.5C2 167.302 49.6976 215 108.5 215C167.302 215 215 167.302 215 108.5C214.894 49.6976 167.197 2 108.5 2ZM108.5 157.149C81.637 157.149 59.8505 135.363 59.8505 108.5C59.8505 81.637 81.637 59.8505 108.5 59.8505C135.363 59.8505 157.149 81.637 157.149 108.5C157.149 135.363 135.363 157.149 108.5 157.149Z" fill="#F6C548" stroke="#400E22" stroke-width="3" stroke-miterlimit="10"/>
<path d="M38.2755 111.673C38.1697 111.779 37.9582 111.885 37.8525 111.885L23.3634 112.308L23.4692 117.172C23.4692 117.384 23.4692 117.49 23.2576 117.596C23.1519 117.701 22.9404 117.807 22.8346 117.807L20.8252 117.913C20.6136 117.913 20.5079 117.913 20.2964 117.807C20.1906 117.701 20.0848 117.596 20.0848 117.384L19.6618 103.953C19.6618 103.741 19.6618 103.635 19.8733 103.424C19.9791 103.318 20.1906 103.212 20.2964 103.212L22.3058 103.106C22.5173 103.106 22.6231 103.106 22.8346 103.318C22.9404 103.424 23.0461 103.635 23.0461 103.741L23.1519 108.606L37.6409 108.183C37.8525 108.183 37.9582 108.183 38.064 108.289C38.1697 108.394 38.2755 108.5 38.2755 108.712L38.3813 111.144C38.3813 111.356 38.3813 111.461 38.2755 111.673Z" fill="#400E22"/>
<path d="M38.2755 100.357C38.1697 100.462 37.9582 100.462 37.8525 100.462L21.0367 96.9723C20.8252 96.9723 20.7194 96.8665 20.6136 96.7608C20.5079 96.655 20.5079 96.4435 20.5079 96.232L21.9885 88.723C22.4115 86.7136 23.1519 85.3387 24.2095 84.4927C25.2671 83.6466 26.6419 83.4351 28.1226 83.7523C28.9686 83.9639 29.709 84.2811 30.2378 84.9157C30.7666 85.4445 31.0838 86.0791 31.2954 86.7136C31.7184 86.0791 32.4587 85.5503 33.3048 85.233C34.1509 84.9157 34.9969 84.8099 35.9488 85.0215C37.5352 85.3387 38.6985 86.1848 39.4389 87.4539C40.1792 88.7231 40.3907 90.3094 39.9677 92.3189L38.3813 100.039C38.487 100.145 38.3813 100.251 38.2755 100.357ZM29.2859 90.7325C29.4974 89.8864 29.3917 89.1461 29.0744 88.6173C28.7571 88.0885 28.2283 87.6655 27.488 87.5597C26.7477 87.4539 26.1131 87.5597 25.6901 87.877C25.1613 88.3 24.844 88.9346 24.6325 89.7806L23.7864 93.7995L28.4398 94.7513L29.2859 90.7325ZM37.2179 92.1074C37.4294 91.2613 37.3237 90.521 36.9006 89.8864C36.4776 89.2518 35.9488 88.9346 35.2085 88.723C34.4682 88.6173 33.8336 88.7231 33.199 89.1461C32.5645 89.5691 32.2472 90.2037 32.0357 91.0498L31.1896 95.2801L36.3718 96.3377L37.2179 92.1074Z" fill="#400E22"/>
<path d="M41.5541 81.6375C39.8619 82.272 37.9583 82.1663 35.8431 81.2144C35.42 81.0029 34.6797 80.6856 33.8336 80.2626C32.8818 79.8396 32.2472 79.5223 31.8242 79.3108C29.709 78.2532 28.4399 76.8783 27.9111 75.0804C27.3823 73.2825 27.5938 71.3788 28.6514 69.2636C29.6032 67.1484 30.9781 65.7735 32.6703 65.0332C34.3624 64.2929 36.2661 64.3986 38.4871 65.3505C39.4389 65.7735 40.0735 66.0908 40.4965 66.3023C40.9195 66.5138 41.5541 66.8311 42.5059 67.3599C44.6211 68.4175 45.8902 69.8981 46.419 71.5903C46.9478 73.2825 46.6306 75.2919 45.6787 77.4071C44.5154 79.5223 43.2462 80.8972 41.5541 81.6375ZM43.0347 73.0709C42.7174 72.1191 41.8714 71.3788 40.6023 70.6385C39.6504 70.1097 39.0159 69.7924 38.6986 69.6866C38.3813 69.4751 37.641 69.2636 36.7949 68.8405C35.5258 68.3117 34.3624 68.1002 33.4106 68.5233C32.4588 68.8405 31.7184 69.4751 31.2954 70.5327C30.7666 71.5903 30.7666 72.5421 31.0839 73.494C31.4012 74.4458 32.2472 75.1861 33.5164 75.9264C33.9394 76.138 34.5739 76.4552 35.42 76.8783C36.2661 77.3013 36.9007 77.5128 37.3237 77.7244C38.5928 78.3589 39.7562 78.4647 40.708 78.1474C41.6598 77.8301 42.4002 77.0898 42.8232 76.0322C43.352 74.9746 43.4578 74.0228 43.0347 73.0709Z" fill="#400E22"/>
<path d="M44.8326 45.8906C45.0441 45.8906 45.1499 45.8906 45.2557 46.1021L58.4756 56.9954C58.5814 57.1012 58.6871 57.2069 58.6871 57.4184C58.6871 57.63 58.6871 57.7357 58.5814 57.8415L56.995 59.7451C56.8892 59.8509 56.6777 59.9567 56.5719 59.9567C56.3604 59.9567 56.2547 59.9567 56.1489 59.8509L51.6012 55.9378L49.8033 58.1587L52.13 64.6101C52.2358 64.8216 52.3416 65.0331 52.2358 65.2446C52.2358 65.4562 52.13 65.6677 51.9185 65.8792L50.3321 67.7829C50.2264 67.8886 50.1206 67.9944 50.0148 67.9944C49.9091 67.9944 49.6976 67.9944 49.5918 67.8886C49.486 67.7829 49.486 67.7829 49.3803 67.6771L46.9478 60.8027C45.8902 61.4373 44.8326 61.6488 43.775 61.5431C42.7174 61.4373 41.6598 60.9085 40.6022 60.0624C39.7562 59.3221 39.1216 58.5818 38.8043 57.5242C38.3813 56.5724 38.3813 55.5148 38.5928 54.4572C38.8043 53.3996 39.3331 52.2362 40.285 51.1786L44.4096 46.1021C44.5153 45.9964 44.7269 45.8906 44.8326 45.8906ZM44.7269 50.3325L42.6117 52.8708C42.0829 53.6111 41.7656 54.2456 41.8713 54.986C41.9771 55.7263 42.4001 56.3608 43.0347 56.9954C44.5153 58.1587 45.7845 58.053 47.0536 56.5724L49.1688 54.0341L44.7269 50.3325Z" fill="#400E22"/>
<path d="M66.6191 48.9574C64.8211 48.6401 63.3405 47.4768 62.0714 45.5731C61.8599 45.1501 61.4368 44.5155 60.8023 43.6694C60.2735 42.7176 59.8504 42.083 59.5332 41.66C58.4756 39.7563 58.1583 37.8526 58.5813 36.0547C59.0044 34.2568 60.2735 32.7762 62.3887 31.5071C63.7635 30.661 65.0327 30.2379 66.3018 30.0264C67.5709 29.9207 68.7343 30.0264 69.7919 30.4495C70.8494 30.8725 71.6955 31.6128 72.3301 32.5647C72.4358 32.6704 72.4358 32.7762 72.3301 32.9877C72.3301 33.0935 72.2243 33.1992 72.1186 33.305L70.0034 34.6799C69.7919 34.7856 69.6861 34.7856 69.4746 34.7856C69.3688 34.7856 69.1573 34.6799 68.9458 34.4683C68.0997 33.728 67.3594 33.305 66.6191 33.1992C65.8787 33.1992 65.0327 33.4107 64.0808 33.9395C61.9656 35.2087 61.5426 37.1123 62.9175 39.5448C63.129 39.9678 63.552 40.6024 64.0808 41.4485C64.6096 42.2945 65.0327 42.9291 65.2442 43.3521C66.8306 45.6789 68.6285 46.2077 70.7437 44.8328C71.5898 44.304 72.2243 43.6694 72.5416 42.9291C72.8589 42.1888 72.8589 41.3427 72.5416 40.2851C72.4358 40.0736 72.4358 39.8621 72.5416 39.7563C72.5416 39.6506 72.6474 39.5448 72.8589 39.3333L74.9741 37.9584C75.0798 37.8526 75.2914 37.8526 75.3971 37.8526C75.5029 37.8526 75.6086 37.9584 75.7144 38.0642C76.2432 39.016 76.5605 40.1794 76.4547 41.237C76.349 42.4003 76.0317 43.4579 75.2914 44.5155C74.551 45.5731 73.5992 46.5249 72.2243 47.371C70.2149 48.8517 68.3112 49.2747 66.6191 48.9574Z" fill="#400E22"/>
<path d="M85.1271 40.92C85.0213 40.8142 84.9156 40.7084 84.8098 40.6027L80.1564 26.8539L75.503 28.4403C75.2914 28.5461 75.1857 28.4403 74.9742 28.4403C74.8684 28.3345 74.7626 28.2288 74.6569 28.0173L74.0223 26.1136C73.9166 25.9021 73.9166 25.7963 74.0223 25.5848C74.1281 25.479 74.2338 25.3733 74.4454 25.2675L87.1365 20.9314C87.348 20.8256 87.4538 20.8256 87.6653 20.9314C87.7711 21.0371 87.8768 21.1429 87.9826 21.3544L88.6172 23.2581C88.7229 23.4696 88.7229 23.5754 88.6172 23.7869C88.5114 23.8926 88.4056 23.9984 88.1941 24.1042L83.6464 25.6906L88.2999 39.4393C88.4056 39.6508 88.2999 39.7566 88.2999 39.9681C88.1941 40.0739 88.0883 40.1796 87.8768 40.2854L85.5501 41.0257C85.4444 41.0257 85.2328 40.92 85.1271 40.92Z" fill="#400E22"/>
<path d="M94.2224 37.7475C94.1166 37.6417 94.0109 37.536 94.0109 37.3244V37.1129L98.6643 19.6626C98.7701 19.2395 99.0873 18.9223 99.5104 18.9223L102.366 18.605C102.789 18.605 103.106 18.7107 103.318 19.1338L111.25 35.4208L111.355 35.6323C111.355 35.738 111.355 35.9496 111.25 36.0553C111.144 36.1611 111.038 36.2668 110.932 36.2668L108.606 36.4784C108.288 36.4784 107.971 36.3726 107.76 36.0553L106.279 32.9883L98.5585 33.7286L97.6067 37.0072C97.5009 37.3244 97.2894 37.536 96.8664 37.536L94.5397 37.7475C94.5397 37.8532 94.3281 37.8532 94.2224 37.7475ZM99.1931 30.6616L105.116 30.1328L101.414 22.4123L99.1931 30.6616Z" fill="#400E22"/>
<path d="M117.49 37.0068C117.384 36.901 117.384 36.6895 117.384 36.5837L119.393 22.2004L114.528 21.5659C114.317 21.5659 114.211 21.4601 114.105 21.3543C113.999 21.2486 113.999 21.0371 113.999 20.8255L114.317 18.9219C114.317 18.7103 114.422 18.6046 114.528 18.4988C114.634 18.3931 114.846 18.3931 115.057 18.3931L128.383 20.191C128.594 20.191 128.7 20.2967 128.806 20.4025C128.912 20.5083 128.912 20.7198 128.912 20.9313L128.594 22.835C128.594 23.0465 128.489 23.1523 128.383 23.258C128.277 23.3638 128.065 23.3638 127.854 23.3638L123.095 22.7292L121.085 37.1125C121.085 37.3241 120.98 37.4298 120.874 37.5356C120.768 37.6413 120.557 37.6413 120.345 37.6413L117.913 37.3241C117.701 37.2183 117.595 37.2183 117.49 37.0068Z" fill="#400E22"/>
<path d="M128.594 38.8048C128.489 38.699 128.489 38.4875 128.594 38.276L134.94 22.412C135.046 22.2005 135.151 22.0947 135.257 21.989C135.363 21.8832 135.574 21.8832 135.786 21.989L138.007 22.9408C138.218 23.0466 138.324 23.1523 138.324 23.2581C138.43 23.4696 138.43 23.5754 138.324 23.7869L133.882 34.8917L146.362 26.7482C146.573 26.5367 146.891 26.5367 147.208 26.6424L149.217 27.4885C149.429 27.5943 149.535 27.7 149.535 27.8058C149.64 27.9115 149.64 28.123 149.535 28.3346L143.189 44.1985C143.083 44.41 142.978 44.5158 142.872 44.5158C142.766 44.6216 142.555 44.6216 142.343 44.5158L140.122 43.6697C139.911 43.564 139.805 43.4582 139.699 43.3524C139.593 43.1409 139.593 43.0352 139.699 42.8236L144.035 31.9304L131.661 39.8624C131.344 40.0739 131.133 40.0739 130.815 39.9681L128.7 39.1221C128.806 39.0163 128.7 38.9105 128.594 38.8048Z" fill="#400E22"/>
<path d="M148.16 46.1024C147.843 44.3045 148.266 42.5066 149.535 40.6029C149.852 40.1799 150.275 39.5453 150.91 38.6992C151.544 37.8532 152.073 37.2186 152.284 36.7956C153.659 34.9977 155.246 34.0458 157.149 33.8343C158.947 33.6228 160.851 34.2573 162.755 35.6322C164.024 36.5841 164.976 37.5359 165.61 38.6992C166.245 39.8626 166.562 40.9202 166.456 42.0836C166.456 43.2469 166.033 44.1988 165.399 45.1506C165.293 45.2563 165.187 45.3621 165.081 45.3621C164.976 45.3621 164.764 45.3621 164.658 45.2563L162.649 43.7757C162.437 43.67 162.332 43.5642 162.332 43.3527C162.332 43.2469 162.332 43.0354 162.437 42.8239C162.86 41.7663 162.966 40.9202 162.649 40.1799C162.437 39.4396 161.803 38.6992 160.957 38.0647C158.947 36.5841 157.044 36.9013 155.351 39.1223C155.034 39.5453 154.611 40.0741 154.082 40.8144C153.554 41.5548 153.025 42.1893 152.813 42.6124C151.227 44.9391 151.438 46.8427 153.448 48.3234C154.294 48.9579 155.14 49.2752 155.88 49.2752C156.726 49.2752 157.467 48.9579 158.313 48.2176C158.524 48.1119 158.736 48.0061 158.842 48.0061C158.947 48.0061 159.159 48.0061 159.265 48.2176L161.274 49.6983C161.38 49.804 161.486 49.9098 161.486 50.0155C161.486 50.1213 161.486 50.3328 161.38 50.4386C160.639 51.3904 159.793 52.025 158.736 52.3422C157.678 52.6595 156.515 52.7653 155.246 52.5538C153.977 52.3422 152.707 51.7077 151.544 50.7558C149.64 49.4867 148.583 47.9003 148.16 46.1024Z" fill="#400E22"/>
<path d="M162.649 60.2741C162.649 60.0626 162.755 59.9568 162.86 59.8511L173.859 50.4385L170.687 46.7369C170.581 46.6311 170.475 46.4196 170.581 46.3138C170.581 46.1023 170.687 45.9966 170.792 45.8908L172.273 44.6217C172.379 44.5159 172.59 44.4102 172.696 44.4102C172.908 44.4102 173.013 44.5159 173.119 44.6217L181.791 54.8804C181.897 54.9861 182.003 55.1976 182.003 55.4092C182.003 55.6207 181.897 55.7264 181.791 55.8322L180.311 57.1013C180.205 57.2071 179.994 57.3128 179.782 57.3128C179.57 57.3128 179.465 57.2071 179.359 57.1013L176.186 53.3997L165.187 62.8123C165.081 62.9181 164.87 63.0239 164.764 63.0239C164.553 63.0239 164.447 62.9181 164.341 62.8123L162.755 60.9087C162.649 60.5914 162.649 60.4856 162.649 60.2741Z" fill="#400E22"/>
<path d="M169.735 68.9464C169.841 68.8407 169.946 68.6291 170.052 68.6291L185.281 61.0144C185.493 60.9087 185.599 60.9087 185.81 60.9087C186.022 60.9087 186.128 61.0145 186.233 61.226L187.291 63.4469C187.397 63.5527 187.397 63.7642 187.291 63.9757C187.185 64.1872 187.079 64.293 186.974 64.3988L176.292 69.6867L191.098 71.9077C191.416 71.9077 191.733 72.1192 191.839 72.4365L192.79 74.4459C192.896 74.6574 192.896 74.7632 192.79 74.9747C192.685 75.0805 192.579 75.292 192.473 75.292L177.138 82.9067C177.032 83.0125 176.821 83.0125 176.609 82.9067C176.398 82.9067 176.292 82.8009 176.292 82.5894L175.234 80.4742C175.129 80.2627 175.129 80.1569 175.234 79.9454C175.34 79.7339 175.446 79.6282 175.552 79.6282L186.022 74.3402L171.533 72.0135C171.215 72.0135 170.898 71.8019 170.792 71.4847L169.841 69.4752C169.735 69.3695 169.735 69.1579 169.735 68.9464Z" fill="#400E22"/>
<path d="M181.368 100.78C181.263 100.78 181.051 100.78 180.945 100.674C180.84 100.568 180.734 100.462 180.628 100.251L180.099 97.6069C179.993 97.2897 180.099 96.9724 180.417 96.7609L186.551 90.8383L186.022 88.4058L179.147 89.8865C178.936 89.8865 178.83 89.8865 178.724 89.7807C178.619 89.675 178.513 89.5692 178.407 89.3577L177.878 87.031C177.878 86.8194 177.878 86.7137 177.984 86.6079C178.09 86.5022 178.196 86.3964 178.407 86.2906L195.117 82.6948C195.329 82.6948 195.434 82.6948 195.646 82.8006C195.752 82.9063 195.857 83.0121 195.963 83.2236L196.492 85.5503C196.492 85.7619 196.492 85.8676 196.386 86.0791C196.28 86.1849 196.175 86.2907 195.963 86.3964L189.406 87.7713L189.829 89.9922L197.55 92.6362C197.867 92.742 198.078 93.0593 198.184 93.4823L198.713 96.1263C198.713 96.3378 198.713 96.4436 198.607 96.5493C198.501 96.6551 198.396 96.7609 198.29 96.7609C198.184 96.7609 198.078 96.7609 197.973 96.6551L189.089 93.4823L181.791 100.568C181.58 100.674 181.474 100.674 181.368 100.78Z" fill="#400E22"/>
<path d="M181.051 101.52C181.157 101.415 181.263 101.415 181.474 101.415L181.686 101.52L198.396 108.289C198.819 108.5 199.03 108.818 199.03 109.241L198.924 112.096C198.924 112.519 198.713 112.837 198.29 113.048L181.157 118.865H180.945C180.84 118.865 180.628 118.759 180.522 118.653C180.417 118.548 180.417 118.442 180.417 118.23L180.522 115.904C180.522 115.586 180.734 115.269 181.051 115.163L184.224 114.106L184.435 106.385L181.263 105.116C180.945 105.01 180.734 104.693 180.84 104.376L180.945 102.049C180.84 101.732 180.945 101.626 181.051 101.52ZM187.397 107.337L187.185 113.26L195.329 110.51L187.397 107.337Z" fill="#400E22"/>
<path d="M26.7477 141.497C26.7477 141.391 26.8535 141.286 26.9592 141.286L39.3331 135.363C39.4389 135.257 39.6504 135.257 39.7562 135.363C39.8619 135.363 39.9677 135.469 40.0734 135.575L40.4965 136.526C40.6022 136.632 40.6022 136.844 40.4965 136.949C40.4965 137.055 40.3907 137.161 40.1792 137.267L34.8912 139.805L38.064 146.362L43.352 143.824C43.4577 143.718 43.6693 143.718 43.775 143.824C43.8808 143.824 43.9865 143.93 44.0923 144.035L44.5153 144.987C44.6211 145.093 44.6211 145.304 44.5153 145.41C44.5153 145.516 44.4096 145.622 44.1981 145.727L31.8242 151.65C31.7184 151.756 31.6127 151.756 31.4011 151.65C31.2954 151.65 31.1896 151.544 31.0839 151.438L30.6608 150.487C30.5551 150.381 30.5551 150.275 30.6608 150.064C30.7666 149.852 30.7666 149.852 30.8723 149.746L36.3718 147.102L33.1991 140.545L27.6995 143.189C27.5938 143.295 27.488 143.295 27.2765 143.189C27.1708 143.189 27.065 143.083 26.9592 142.978L26.5362 142.026C26.7477 141.814 26.642 141.709 26.7477 141.497Z" fill="#400E22"/>
<path d="M34.1509 156.091C34.1509 155.986 34.2566 155.88 34.3624 155.774L34.5739 155.668L48.5342 151.649C48.8515 151.544 49.063 151.649 49.2745 151.861L50.1206 152.919C50.3321 153.236 50.3321 153.447 50.1206 153.765L42.4001 166.033L42.1886 166.244C42.0829 166.35 41.9771 166.35 41.8713 166.35C41.7656 166.35 41.6598 166.244 41.5541 166.138L40.9195 165.398C40.8137 165.292 40.8137 165.187 40.8137 165.081C40.8137 164.975 40.8137 164.869 40.9195 164.764L42.6117 162.014L38.487 156.409L35.42 157.255C35.2085 157.36 34.997 157.255 34.7854 157.043L34.1509 156.197C34.2566 156.303 34.1509 156.197 34.1509 156.091ZM40.3907 155.986L43.8808 160.639L48.2169 153.765L40.3907 155.986Z" fill="#400E22"/>
<path d="M59.7447 182.003C59.639 182.109 59.5332 182.215 59.4274 182.215C59.3217 182.215 59.2159 182.215 59.1102 182.109L58.2641 181.369C58.1583 181.263 58.0526 181.157 58.0526 181.051C58.0526 180.946 58.0526 180.84 58.0526 180.734L58.8986 173.331L57.1007 171.744L53.1876 176.398C53.0819 176.504 52.9761 176.609 52.8703 176.609C52.7646 176.609 52.6588 176.609 52.5531 176.504L51.8127 175.869C51.707 175.763 51.6012 175.658 51.6012 175.552C51.6012 175.446 51.6012 175.34 51.707 175.235L55.6201 170.581L53.8222 168.995L46.7363 171.11C46.6305 171.11 46.5248 171.11 46.419 171.11C46.3132 171.11 46.2075 171.004 46.1017 171.004L45.2556 170.264C45.1499 170.158 45.0441 170.052 45.0441 169.947C45.0441 169.841 45.0441 169.735 45.1499 169.629C45.2556 169.523 45.2556 169.523 45.3614 169.523L53.1876 167.197L54.2452 159.688C54.2452 159.582 54.2452 159.476 54.351 159.371C54.5625 159.159 54.774 159.159 54.9855 159.371L55.7259 160.005C55.9374 160.217 56.0431 160.428 56.0431 160.745L55.0913 167.831L56.8892 169.312L60.6966 164.87C60.8023 164.764 60.9081 164.659 61.0138 164.659C61.1196 164.659 61.2254 164.659 61.3311 164.764L62.0714 165.399C62.1772 165.505 62.283 165.61 62.283 165.716C62.283 165.822 62.283 165.928 62.1772 166.033L58.3698 170.475L60.062 171.956L66.8306 169.735C67.0421 169.629 67.3594 169.735 67.5709 169.947L68.417 170.581C68.6285 170.793 68.6285 171.004 68.5228 171.216C68.5228 171.321 68.417 171.321 68.3113 171.321L61.1196 173.648L60.1678 181.792C59.8505 181.897 59.7447 181.897 59.7447 182.003Z" fill="#400E22"/>
<path d="M64.8212 185.387C64.8212 185.281 64.8212 185.176 64.8212 184.964L70.8495 172.59C70.9553 172.484 71.061 172.379 71.1668 172.273C71.2726 172.273 71.3783 172.273 71.5898 172.273L72.4359 172.696C72.6474 172.802 72.7532 173.013 72.7532 173.225L72.9647 182.955L80.7909 177.244C81.0025 177.138 81.214 177.032 81.4255 177.138L82.2716 177.561C82.3773 177.667 82.4831 177.772 82.4831 177.878C82.4831 177.984 82.4831 178.09 82.4831 178.301L76.4548 190.675C76.349 190.781 76.349 190.887 76.1375 190.887C76.0318 190.887 75.926 190.887 75.7145 190.887L74.8684 190.464C74.7626 190.358 74.6569 190.358 74.6569 190.146C74.6569 190.041 74.6569 189.935 74.6569 189.829L79.2045 180.416L72.9647 185.07C72.7532 185.281 72.4359 185.281 72.1186 185.176L71.5898 184.858C71.3783 184.753 71.1668 184.541 71.1668 184.118L70.9553 176.292L66.4076 185.704C66.3019 185.81 66.3019 185.916 66.0903 185.916C65.9846 185.916 65.8788 185.916 65.6673 185.916L64.8212 185.493C64.927 185.599 64.927 185.493 64.8212 185.387Z" fill="#400E22"/>
<path d="M82.9061 193.213C82.8003 193.107 82.8003 193.002 82.9061 192.79L86.0789 179.464C86.0789 179.359 86.1846 179.253 86.2904 179.147C86.3962 179.041 86.5019 179.041 86.7134 179.147L87.6653 179.359C87.771 179.359 87.8768 179.464 87.9826 179.57C88.0883 179.676 88.0883 179.782 87.9826 179.993L85.4443 190.675L95.8088 181.685C95.9145 181.474 96.1261 181.474 96.3376 181.474L97.2894 181.685C97.3952 181.685 97.5009 181.791 97.6067 181.897C97.7125 182.003 97.7125 182.108 97.6067 182.32L94.4339 195.646C94.4339 195.751 94.3281 195.857 94.2224 195.963C94.1166 196.069 94.0109 196.069 93.9051 195.963L92.9533 195.751C92.8475 195.751 92.7417 195.646 92.636 195.54C92.5302 195.434 92.5302 195.328 92.5302 195.117L95.0685 184.541L84.8098 193.425C84.704 193.636 84.4925 193.636 84.281 193.636L83.3291 193.425C83.0119 193.425 82.9061 193.319 82.9061 193.213Z" fill="#400E22"/>
<path d="M107.971 197.232C107.865 197.127 107.865 197.021 107.865 196.915L107.125 183.272C107.125 183.166 107.125 182.955 107.231 182.849C107.337 182.743 107.442 182.743 107.548 182.743H108.606C108.712 182.743 108.817 182.743 108.923 182.849C109.029 182.955 109.029 183.061 109.029 183.166L109.558 194.165L116.855 182.638C116.961 182.426 117.172 182.32 117.384 182.32H118.336C118.441 182.32 118.547 182.32 118.653 182.426C118.759 182.532 118.759 182.638 118.759 182.743L119.499 196.492C119.499 196.598 119.499 196.704 119.393 196.809C119.287 196.915 119.182 196.915 119.076 196.915H118.018C117.913 196.915 117.807 196.915 117.701 196.809C117.595 196.704 117.595 196.598 117.49 196.492L116.961 185.599L109.663 197.021C109.558 197.232 109.452 197.338 109.135 197.338H108.077C108.183 197.338 107.971 197.338 107.971 197.232Z" fill="#400E22"/>
<path d="M138.218 177.138C138.324 177.244 138.43 177.244 138.43 177.35C138.43 177.455 138.43 177.561 138.43 177.667L137.372 188.243C137.267 189.406 137.055 190.358 136.949 191.098C136.738 191.733 136.526 192.368 136.103 192.791C135.68 193.214 135.151 193.531 134.305 193.848L133.459 194.06C133.353 194.06 133.248 194.06 133.142 194.06C133.036 193.954 132.93 193.954 132.93 193.742L132.719 193.002C132.719 192.896 132.719 192.685 132.719 192.579C132.719 192.473 132.825 192.368 133.036 192.368L133.777 192.156C134.305 191.945 134.728 191.733 134.94 191.204C135.151 190.781 135.363 190.041 135.469 189.195L127.219 181.369C127.114 181.263 127.114 181.263 127.114 181.157C127.114 181.051 127.114 180.946 127.114 180.84C127.219 180.734 127.219 180.628 127.325 180.628L128.383 180.311C128.594 180.205 128.806 180.311 129.017 180.522L135.786 186.868L136.632 178.09C136.632 177.878 136.738 177.667 137.055 177.561L138.007 177.244C138.007 177.138 138.113 177.138 138.218 177.138Z" fill="#400E22"/>
<path d="M148.16 188.137C147.314 188.243 146.573 188.137 145.939 187.82C145.304 187.502 144.775 187.079 144.352 186.55C144.352 186.445 144.247 186.339 144.352 186.233C144.352 186.127 144.458 186.022 144.564 186.022L145.41 185.599C145.516 185.493 145.622 185.493 145.833 185.493C145.939 185.493 146.045 185.599 146.256 185.704C146.679 186.127 147.208 186.445 147.948 186.445C148.583 186.445 149.323 186.339 150.169 185.81C151.015 185.387 151.65 184.753 152.073 184.012C152.496 183.272 152.496 182.532 152.073 181.791C151.65 181.051 151.121 180.628 150.381 180.522C149.64 180.416 148.794 180.522 147.843 181.051L146.468 181.791C146.362 181.897 146.256 181.897 146.15 181.791C146.045 181.791 145.939 181.685 145.833 181.474L145.516 180.839C145.41 180.734 145.41 180.628 145.41 180.416C145.41 180.311 145.516 180.205 145.622 180.099L146.891 179.465C147.737 179.041 148.266 178.513 148.477 177.878C148.794 177.244 148.689 176.609 148.371 175.869C148.054 175.234 147.525 174.917 146.785 174.811C146.045 174.705 145.304 174.811 144.564 175.234C143.824 175.657 143.189 176.186 142.872 176.715C142.555 177.244 142.449 177.878 142.66 178.513C142.766 178.83 142.66 179.041 142.449 179.147L141.497 179.676C141.391 179.782 141.285 179.782 141.18 179.676C141.074 179.676 140.968 179.57 140.968 179.465C140.545 178.407 140.545 177.349 141.074 176.397C141.603 175.34 142.555 174.494 143.929 173.753C144.881 173.225 145.727 173.013 146.573 173.013C147.419 173.013 148.16 173.119 148.794 173.542C149.429 173.859 149.852 174.388 150.169 175.023C150.487 175.657 150.698 176.292 150.698 176.821C150.698 177.455 150.592 178.09 150.169 178.618C151.015 178.618 151.65 178.83 152.284 179.147C152.919 179.57 153.342 180.099 153.765 180.734C154.188 181.474 154.294 182.214 154.188 183.06C154.082 183.906 153.765 184.647 153.13 185.281C152.602 186.022 151.756 186.656 150.804 187.185C149.958 187.82 149.006 188.031 148.16 188.137Z" fill="#400E22"/>
<path d="M160.639 181.157C160.534 181.157 160.428 181.051 160.322 180.945L151.756 170.263C151.65 170.158 151.65 170.052 151.65 169.946C151.65 169.84 151.756 169.735 151.861 169.629L152.602 168.994C152.707 168.889 152.813 168.889 153.025 168.889C153.131 168.889 153.236 168.994 153.342 169.1L156.938 173.648L162.649 169.1L159.053 164.552C158.947 164.447 158.947 164.341 158.947 164.129C158.947 164.024 159.053 163.918 159.159 163.812L159.899 163.178C160.005 163.072 160.111 163.072 160.322 163.072C160.428 163.072 160.534 163.178 160.639 163.283L169.206 173.965C169.312 174.071 169.312 174.177 169.312 174.282C169.312 174.388 169.206 174.494 169.1 174.6L168.36 175.234C168.254 175.34 168.148 175.34 168.043 175.34C167.937 175.34 167.831 175.234 167.725 175.128L163.918 170.369L158.207 174.917L162.014 179.676C162.12 179.782 162.12 179.888 162.12 179.993C162.12 180.099 162.014 180.205 161.909 180.311L161.168 180.945C160.957 181.157 160.745 181.157 160.639 181.157Z" fill="#400E22"/>
<path d="M173.225 170.58C173.119 170.58 173.013 170.58 172.908 170.475L172.802 170.263L165.822 157.466C165.61 157.149 165.716 156.937 165.927 156.62L166.774 155.563C166.985 155.351 167.302 155.245 167.514 155.351L181.263 160.216L181.474 160.322C181.58 160.428 181.58 160.533 181.58 160.639C181.58 160.745 181.58 160.851 181.474 160.956L180.84 161.697C180.734 161.802 180.628 161.908 180.522 161.908C180.417 161.908 180.311 161.908 180.205 161.908L177.138 160.851L172.59 166.139L174.177 168.994C174.282 169.206 174.282 169.417 174.071 169.629L173.436 170.369C173.436 170.58 173.331 170.58 173.225 170.58ZM171.744 164.658L175.446 160.322L167.831 157.572L171.744 164.658Z" fill="#400E22"/>
<path d="M172.062 145.621C171.427 145.833 170.687 145.727 170.052 145.41C169.946 145.304 169.841 145.304 169.841 145.198C169.841 145.092 169.841 144.987 169.841 144.881L170.158 144.246C170.264 144.141 170.264 144.035 170.369 144.035C170.475 144.035 170.581 144.035 170.687 144.035C171.427 144.458 172.167 144.141 172.696 143.189C173.225 142.131 173.119 141.497 172.379 141.074C172.273 140.968 172.167 140.968 172.167 140.862C172.167 140.756 172.167 140.651 172.167 140.545L172.485 139.91C172.59 139.804 172.59 139.699 172.696 139.699C172.802 139.699 172.908 139.699 173.013 139.699C173.648 140.016 174.071 140.545 174.282 141.285C174.494 141.92 174.282 142.766 173.754 143.823C173.331 144.775 172.802 145.41 172.062 145.621ZM184.647 156.303C184.541 156.303 184.435 156.303 184.224 156.197L172.273 149.534C172.167 149.429 172.062 149.323 172.062 149.217C172.062 149.111 172.062 149.006 172.167 148.794L172.696 147.948C172.802 147.842 172.908 147.736 173.013 147.736C173.119 147.736 173.225 147.736 173.436 147.842L183.061 153.236L177.138 140.862C177.032 140.651 177.032 140.439 177.138 140.228L177.667 139.381C177.773 139.276 177.878 139.17 177.984 139.17C178.09 139.17 178.196 139.17 178.407 139.276L190.358 145.939C190.464 146.044 190.569 146.15 190.569 146.256C190.569 146.362 190.569 146.467 190.569 146.573L190.041 147.419C189.935 147.525 189.829 147.631 189.723 147.631C189.618 147.631 189.512 147.631 189.3 147.631L179.782 142.343L185.599 154.611C185.705 154.822 185.705 155.034 185.599 155.245L185.07 156.091C184.858 156.197 184.753 156.303 184.647 156.303Z" fill="#400E22"/>
</svg>
