<svg width="190" height="61" viewBox="0 0 190 61" fill="none" xmlns="http://www.w3.org/2000/svg">
<g clip-path="url(#clip0)">
<path d="M113.767 52.7008C113.101 53.6137 111.853 54.4437 110.272 54.4437C108.524 54.4437 107.442 53.7797 107.442 51.6219V42.2437H103.364V53.2817C103.364 56.2695 104.945 58.1783 108.357 58.1783C110.854 58.1783 112.768 57.0164 113.767 55.8545V57.8464H117.845V42.3266H113.767V52.7008Z" fill="white"/>
<path d="M91.6294 17.8438C91.6294 11.4533 86.9689 7.1377 80.311 7.1377H71.9054V28.5499H80.311C87.0521 28.5499 91.6294 24.3173 91.6294 17.8438ZM76.4827 11.1214H80.3942C84.7219 11.1214 87.0521 14.0261 87.0521 17.7608C87.0521 21.4125 84.6386 24.4833 80.3942 24.4833H76.5659L76.4827 11.1214Z" fill="white"/>
<path d="M108.357 26.7241L106.526 24.0683C105.528 25.0642 103.78 25.5622 102.448 25.5622C99.8686 25.5622 98.2873 23.9853 98.0376 22.0765H109.523V21.0805C109.523 16.018 106.443 12.6152 101.783 12.6152C97.1222 12.6152 93.7932 16.2669 93.7932 20.7486C93.7932 25.7282 97.3718 28.8819 102.032 28.8819C104.446 28.8819 106.859 28.218 108.357 26.7241ZM101.783 16.018C104.446 16.018 105.528 17.8438 105.611 19.3377H98.0376C98.1209 17.7608 99.2028 16.018 101.783 16.018Z" fill="white"/>
<path d="M120.175 27.886L119.343 24.7322C119.093 24.9812 118.511 25.2302 117.928 25.2302C117.013 25.2302 116.513 24.4833 116.513 23.4873V7.05469H112.435V24.5663C112.435 27.388 113.933 28.7989 116.763 28.7989C118.427 28.8819 119.593 28.4669 120.175 27.886Z" fill="white"/>
<path d="M81.9754 40.0027C84.1393 40.0027 86.0534 41.4136 86.9689 43.0735L90.8804 41.1646C89.3824 38.5088 86.636 35.936 81.9754 35.936C75.5672 35.936 70.5738 40.4177 70.657 47.0571C70.657 53.6136 75.6504 58.0952 82.0587 58.0952C86.7192 58.0952 89.4656 55.5224 90.9636 52.7837L87.0521 50.8748C86.1366 52.6177 84.2225 54.0286 82.0587 54.0286C78.1471 54.0286 75.3175 51.0408 75.3175 46.9741C75.2343 42.9905 78.0639 40.0027 81.9754 40.0027Z" fill="white"/>
<path d="M99.286 54.5266C98.3705 54.5266 97.8712 53.7796 97.8712 52.7837V36.3511H93.7932V53.8626C93.7932 56.6844 95.2912 58.0953 98.1209 58.0953C99.7853 58.0953 100.867 57.6803 101.533 57.0994L100.701 53.9456C100.451 54.2776 99.8686 54.4436 99.286 54.5266Z" fill="white"/>
<path d="M153.381 12.6152C148.721 12.6152 145.392 16.2669 145.392 20.7486C145.392 25.7282 148.971 28.8819 153.631 28.8819C156.045 28.8819 158.458 28.135 159.956 26.7241L158.125 24.0683C157.127 25.0642 155.379 25.5622 154.047 25.5622C151.467 25.5622 149.886 23.9853 149.636 22.0765H161.121V21.0805C161.121 16.018 158.042 12.6152 153.381 12.6152ZM157.21 19.2547H149.636C149.803 17.6778 150.885 15.935 153.381 15.935C156.045 15.935 157.127 17.7608 157.21 19.2547Z" fill="white"/>
<path d="M173.022 12.5322C171.108 12.5322 169.194 13.6941 168.112 15.022V12.9472H164.034V28.4669H168.112V18.2588C168.778 17.2628 170.609 16.5159 171.94 16.5159C172.44 16.5159 172.773 16.5159 173.022 16.5989V12.5322Z" fill="white"/>
<path d="M186.005 12.9473V22.7405C185.339 23.6534 184.091 24.4833 182.51 24.4833C180.762 24.4833 179.68 23.8194 179.68 21.6616V12.9473H175.602V23.3214C175.602 26.3092 177.183 28.218 180.596 28.218C183.092 28.218 185.007 27.0561 186.005 25.8942V27.4711C186.005 29.6289 184.507 31.4548 181.844 31.4548C180.18 31.4548 178.349 30.8738 177.183 29.5459L175.353 32.4507C177.183 34.0275 179.181 34.7745 181.844 34.7745C186.754 34.7745 190.083 32.1187 190.083 27.4711V13.0303L186.005 12.9473Z" fill="white"/>
<path d="M123.92 11.3702C125.252 11.3702 126.334 10.2913 126.334 8.96344C126.334 7.63555 125.252 6.55664 123.92 6.55664C122.589 6.55664 121.507 7.63555 121.507 8.96344C121.59 10.2083 122.672 11.3702 123.92 11.3702Z" fill="white"/>
<path d="M125.993 13.0278L121.915 13.0322L121.931 28.552L126.009 28.5476L125.993 13.0278Z" fill="white"/>
<path d="M130.661 41.8286C128.831 41.8286 127.083 42.5756 125.918 44.2354V36.3511H121.84V57.7633H125.918V55.7715C127.166 57.3484 128.831 58.1783 130.661 58.1783C134.573 58.1783 137.486 55.1905 137.486 50.045C137.486 44.8994 134.573 41.8286 130.661 41.8286ZM133.241 49.962C133.241 52.6177 131.66 54.5266 129.33 54.5266C127.998 54.5266 126.5 53.7796 125.834 52.7837V47.3062C126.5 46.3103 127.998 45.4803 129.33 45.4803C131.743 45.3973 133.241 47.2232 133.241 49.962Z" fill="white"/>
<path d="M140.232 12.9473L136.154 23.8194L132.159 13.0303H127.832L133.99 28.467H138.401L144.56 12.9473H140.232Z" fill="white"/>
<path d="M49.8511 1.5765C48.7692 1.16153 48.2698 -0.166359 46.6886 -0.000373072C45.0241 0.165613 43.9422 1.16153 43.5261 1.99146C42.5274 3.90031 42.6106 6.4731 43.3596 8.46493C44.608 11.6187 46.1892 13.4445 47.0215 17.0132C47.4376 18.8391 46.7718 21.3289 44.8576 22.4078C42.9435 23.4867 39.5313 19.0051 30.3767 19.1711C21.2221 19.42 17.1441 24.2336 14.0648 25.8935C10.8191 24.8146 6.57468 25.2296 3.74507 26.8894C0.832238 28.4663 0 31.0391 0 33.3629C0 35.6867 0.749014 37.6785 2.0806 37.1806C2.91283 37.0146 3.16251 34.8568 4.07797 34.7738C4.74376 34.6908 3.99474 36.5166 4.74376 36.6826C5.49277 36.8486 8.15593 34.6078 8.90495 35.1887C9.65396 35.8527 8.32238 38.2595 8.90495 38.7575C9.48752 39.2554 12.0675 38.2595 13.3158 37.9275C14.7306 37.5126 15.3132 37.2636 15.7293 37.7615C14.8971 39.0064 12.8165 39.5044 12.3171 40.9983C11.8178 42.4092 10.2365 53.5302 9.40429 54.5262C8.65528 55.4391 5.99212 55.937 6.90758 57.8459C4.16119 59.6717 4.16119 59.9207 5.07665 60.9166C5.2431 61.1656 6.49146 60.8336 7.15725 60.5847C8.57205 60.0867 12.65 57.5139 12.9829 56.85C13.3158 56.269 13.2326 54.9411 13.3158 54.2772C13.6487 52.7003 15.3964 45.3969 15.7293 44.65C16.3119 43.3221 21.3053 40.5833 22.8866 40.1683C24.7175 39.6704 28.2129 39.6704 32.707 40.1683C35.9527 40.5833 39.1152 40.9983 42.777 39.8364C45.5234 38.9234 47.604 37.0146 47.604 32.8649C47.604 30.2921 47.4376 30.1262 47.3544 30.1262C47.3544 30.1262 47.4376 30.1262 47.604 29.7942C48.1866 28.4663 49.1853 27.5534 50.0175 26.3915C52.7639 22.4908 52.7639 17.0132 50.6001 13.6935C48.4363 10.3738 47.8537 9.54384 47.7705 7.22003C47.6873 5.39418 48.6859 4.31527 50.184 4.48126C50.8498 4.56425 53.7626 3.90031 53.5961 2.98738C53.4297 2.15745 51.0162 1.90847 49.8511 1.5765Z" fill="white"/>
<path d="M50.6833 56.9333C49.6847 56.1864 48.8524 55.4394 48.0202 54.6095C46.3557 52.7837 39.2817 48.219 37.9501 46.3932C37.3675 45.5633 38.3662 42.0775 38.3662 42.0775C38.3662 42.0775 36.5353 41.9945 35.4534 41.8286C34.3715 41.7456 33.2063 41.4966 33.2063 41.4966C33.2063 41.4966 32.6238 46.1442 32.707 47.1401C32.8734 48.551 32.707 48.551 36.0359 50.3769C39.8642 52.5347 45.8564 56.4354 46.2725 56.8503C47.0215 57.8462 46.7718 59.0911 48.0202 59.7551C48.686 60.0871 49.1853 59.5891 49.1853 59.5891C49.1853 59.5891 50.0176 60.253 50.6833 60.253C51.2659 60.336 54.8445 60.253 55.011 60.0871C55.2607 59.8381 54.7613 58.5932 54.3452 58.0952C53.7626 57.5973 51.4324 57.5143 50.6833 56.9333Z" fill="white"/>
</g>
<defs>
<clipPath id="clip0">
<rect width="190" height="61" fill="white"/>
</clipPath>
</defs>
</svg>
