<svg width="118" height="88" viewBox="0 0 118 88" fill="none" xmlns="http://www.w3.org/2000/svg">
<path d="M107.824 65.3046C110.726 58.705 109.108 51.2694 104.355 46.4257C104.186 46.2236 104.119 45.9378 104.214 45.7232C105.936 41.8063 104.148 37.242 100.267 35.5351L36.7707 7.60959C32.8897 5.90277 28.3173 7.66982 26.6182 11.5331C26.5002 11.8013 26.2677 11.8912 26.0049 11.9037C19.1991 11.728 12.6248 15.5602 9.7223 22.1599C6.81978 28.7596 8.46217 36.1415 13.1914 41.0389C13.3598 41.241 13.4271 41.5267 13.3327 41.7414C11.6337 45.6046 13.4216 50.1689 17.3026 51.8758L80.7991 79.8013C84.6801 81.5081 89.2526 79.7411 90.9516 75.8778C91.0696 75.6096 91.3021 75.5197 91.5649 75.5072C98.3707 75.6829 104.945 71.8507 107.824 65.3046Z" fill="#F6C548" stroke="#400E22" stroke-miterlimit="10" stroke-linecap="round" stroke-linejoin="round"/>
<path d="M49.3818 35.6171C49.3087 35.5848 49.2577 35.5317 49.2291 35.4579C49.2005 35.384 49.2023 35.3105 49.2346 35.2373L51.9037 29.188L49.8727 28.2918C49.7995 28.2595 49.7485 28.2065 49.7199 28.1326C49.6913 28.0588 49.6947 27.9816 49.7303 27.9011L50.0936 27.0777C50.1291 26.9972 50.1801 26.941 50.2466 26.9091C50.3205 26.8805 50.3977 26.884 50.4782 26.9195L56.0883 29.3948C56.1689 29.4304 56.2234 29.4851 56.2521 29.5589C56.2807 29.6327 56.2772 29.7099 56.2417 29.7904L55.8784 30.6138C55.8429 30.6943 55.7882 30.7489 55.7144 30.7775C55.6405 30.8062 55.5633 30.8027 55.4828 30.7672L53.4627 29.8759L50.7936 35.9252C50.7613 35.9984 50.7082 36.0493 50.6344 36.0779C50.5679 36.1098 50.4944 36.108 50.4139 36.0724L49.3818 35.6171ZM54.2174 37.7507C54.1442 37.7184 54.0933 37.6653 54.0647 37.5915C54.0361 37.5176 54.0379 37.4441 54.0702 37.3709L56.3566 32.1889C56.3921 32.1084 56.4452 32.0575 56.5158 32.0362C56.5897 32.0076 56.6632 32.0094 56.7364 32.0417L59.1737 33.1171C59.9349 33.4529 60.4444 33.8439 60.7023 34.29C60.9675 34.7393 60.9903 35.2127 60.7707 35.7105C60.6415 36.0032 60.4833 36.2132 60.296 36.3404C60.1119 36.4603 59.881 36.5377 59.6033 36.5726C59.8078 36.8027 59.9279 37.0656 59.9636 37.3611C60.0067 37.66 59.9636 37.9557 59.8344 38.2485C59.5987 38.7828 59.2202 39.1055 58.699 39.2165C58.1779 39.3276 57.5367 39.2152 56.7755 38.8793L54.2174 37.7507ZM58.1247 35.4349C58.4175 35.5641 58.6755 35.6036 58.8988 35.5534C59.122 35.5033 59.2837 35.3648 59.3838 35.1379C59.4807 34.9183 59.4696 34.7254 59.3506 34.5592C59.2315 34.393 59.0183 34.2421 58.7109 34.1065L57.4483 33.5494L56.8622 34.8778L58.1247 35.4349ZM57.1285 37.8415C57.4285 37.9739 57.687 38.0224 57.9038 37.9869C58.1205 37.9514 58.279 37.8202 58.3791 37.5933C58.4857 37.3517 58.4811 37.1442 58.3652 36.9707C58.26 36.7931 58.0463 36.6332 57.7243 36.4911L56.4068 35.9098L55.811 37.2602L57.1285 37.8415ZM62.8638 41.6968C62.0001 41.3157 61.4309 40.8023 61.1563 40.1565C60.8816 39.5106 60.8971 38.7917 61.2029 37.9997L61.405 37.5118L61.6291 37.0336C62.0048 36.2812 62.5274 35.7904 63.1969 35.5612C63.8697 35.3246 64.6306 35.3936 65.4796 35.7683C66.3213 36.1396 66.8815 36.6535 67.1603 37.3099C67.4423 37.959 67.432 38.6758 67.1295 39.4605C67.0981 39.5516 67.0307 39.7142 66.9274 39.9484C66.824 40.1826 66.7493 40.342 66.7032 40.4266C66.3243 41.1863 65.8038 41.6824 65.1416 41.9149C64.4794 42.1474 63.7201 42.0747 62.8638 41.6968ZM63.353 40.588C63.7409 40.7591 64.0906 40.7691 64.4022 40.618C64.721 40.4702 64.9911 40.1652 65.2124 39.7033C65.252 39.6333 65.3186 39.4922 65.4123 39.2799C65.5059 39.0677 65.5652 38.9233 65.5902 38.8469C65.7823 38.372 65.8254 37.967 65.7198 37.6318C65.6173 37.2893 65.3758 37.0341 64.9952 36.8661C64.6073 36.695 64.2523 36.687 63.9302 36.8422C63.6114 36.9901 63.3413 37.295 63.12 37.757L62.9201 38.1803L62.7421 38.6133C62.5501 39.0882 62.5069 39.4933 62.6126 39.8284C62.7183 40.1636 62.9651 40.4168 63.353 40.588ZM73.9812 39.6505C74.0617 39.6861 74.1126 39.7391 74.1339 39.8097C74.1657 39.8763 74.1639 39.9498 74.1284 40.0303L71.842 45.2123C71.8097 45.2855 71.7566 45.3364 71.6828 45.365C71.6162 45.3969 71.5427 45.395 71.4622 45.3595L70.507 44.9381C70.4339 44.9058 70.3829 44.8527 70.3543 44.7789C70.3257 44.705 70.3275 44.6315 70.3598 44.5583L71.0961 42.8895L70.119 42.4584L68.2742 43.7561C68.1598 43.8369 68.0441 43.8514 67.927 43.7997L66.9829 43.3831C66.9243 43.3573 66.8828 43.3127 66.8582 43.2494C66.8337 43.1861 66.8343 43.1252 66.8602 43.0667C66.8892 43.0008 66.937 42.9519 67.0035 42.9201L68.9508 41.6282C68.6713 41.33 68.5068 40.9994 68.4571 40.6365C68.4073 40.2735 68.4681 39.8981 68.6392 39.5102C68.9105 38.8954 69.3043 38.5182 69.8205 38.3787C70.3473 38.2352 70.9803 38.3265 71.7195 38.6526L73.9812 39.6505ZM72.3194 40.1765L71.2874 39.7211C70.9434 39.5694 70.6671 39.5218 70.4585 39.5784C70.2531 39.6277 70.0859 39.7987 69.9567 40.0915C69.8372 40.3623 69.8204 40.6084 69.9063 40.83C69.9922 41.0515 70.1852 41.2285 70.4852 41.3609L71.5831 41.8453L72.3194 40.1765ZM26.5183 38.7764C25.7132 38.4212 25.1676 37.9138 24.8815 37.2542C24.6028 36.5978 24.6232 35.8679 24.9427 35.0645L25.1255 34.6205L25.3302 34.1862C25.7082 33.4086 26.2336 32.9016 26.9064 32.665C27.5865 32.4317 28.329 32.4926 29.1342 32.8479C29.7124 33.103 30.1539 33.4202 30.4587 33.7996C30.7708 34.1821 30.9558 34.5654 31.0137 34.9495C31.0822 35.3294 31.064 35.658 30.9591 35.9353C30.9342 36.0117 30.8811 36.0626 30.7999 36.088C30.7261 36.1167 30.6526 36.1148 30.5794 36.0825L29.6023 35.6514C29.5218 35.6159 29.4697 35.5754 29.446 35.53C29.4255 35.4773 29.4164 35.3989 29.4185 35.2949C29.4315 34.9683 29.3739 34.7025 29.2458 34.4973C29.1251 34.2954 28.9256 34.1331 28.6475 34.0103C28.2742 33.8456 27.9298 33.8336 27.6142 33.9741C27.3059 34.1179 27.0379 34.4281 26.8101 34.9047L26.6199 35.3061L26.471 35.6732C26.0951 36.6441 26.2877 37.2975 27.0489 37.6333C27.3344 37.7593 27.5908 37.8025 27.8181 37.7629C28.0486 37.7159 28.2818 37.574 28.5175 37.337C28.5823 37.2694 28.6411 37.2254 28.6938 37.2049C28.7539 37.1877 28.8242 37.1968 28.9047 37.2324L29.8818 37.6635C29.955 37.6958 30.0059 37.7489 30.0346 37.8227C30.0705 37.8998 30.0687 37.9733 30.0291 38.0432C29.9014 38.293 29.6762 38.5259 29.3535 38.742C29.034 38.9508 28.6298 39.0741 28.1409 39.112C27.652 39.1499 27.1112 39.038 26.5183 38.7764ZM32.114 41.1142C32.0408 41.0819 31.9899 41.0289 31.9612 40.955C31.9326 40.8812 31.9345 40.8077 31.9667 40.7345L33.8511 36.4637L32.0725 35.679C31.9994 35.6467 31.9484 35.5936 31.9198 35.5198C31.8912 35.4459 31.893 35.3724 31.9253 35.2992L32.2111 34.6515C32.2466 34.571 32.2997 34.52 32.3703 34.4987C32.4442 34.4701 32.5177 34.4719 32.5909 34.5042L37.5862 36.7083C37.6667 36.7438 37.7177 36.7969 37.739 36.8675C37.7708 36.934 37.769 37.0076 37.7335 37.0881L37.4477 37.7358C37.4154 37.809 37.3623 37.8599 37.2885 37.8885C37.2219 37.9204 37.1484 37.9186 37.0679 37.883L35.2893 37.0983L33.405 41.3691C33.3727 41.4422 33.3196 41.4932 33.2458 41.5218C33.1792 41.5536 33.1057 41.5518 33.0252 41.5163L32.114 41.1142ZM37.8212 43.7636C37.4479 43.5989 37.1362 43.3739 36.8861 43.0886C36.6465 42.7993 36.4917 42.4862 36.4217 42.1493C36.3591 41.8156 36.3956 41.495 36.5313 41.1876C36.7509 40.6899 37.1297 40.3762 37.6679 40.2464C38.2061 40.1166 38.8508 40.1518 39.6019 40.3521L41.2028 40.7961L41.3046 40.5656C41.4434 40.2508 41.4679 39.9775 41.3779 39.7454C41.2879 39.5133 41.0673 39.3198 40.716 39.1648C40.4744 39.0582 40.2611 39.0165 40.0759 39.0398C39.8908 39.063 39.7297 39.1012 39.5925 39.1544C39.466 39.2035 39.3816 39.2362 39.3394 39.2525C39.2713 39.3274 39.1971 39.3471 39.1166 39.3116L38.2602 38.9338C38.1943 38.9047 38.1455 38.8569 38.1136 38.7904C38.0891 38.7271 38.093 38.6589 38.1253 38.5857C38.2133 38.4059 38.3916 38.2397 38.66 38.0871C38.939 37.9304 39.295 37.847 39.7279 37.8369C40.164 37.8195 40.6456 37.927 41.1726 38.1596C42.0363 38.5406 42.5801 39.0123 42.8042 39.5746C43.0283 40.1369 43.0015 40.7328 42.7237 41.3623L41.2027 44.8096C41.1704 44.8828 41.1173 44.9337 41.0435 44.9623C40.9769 44.9942 40.9034 44.9924 40.8229 44.9568L39.9117 44.5548C39.8385 44.5225 39.7876 44.4694 39.7589 44.3956C39.7303 44.3217 39.7322 44.2482 39.7644 44.175L39.9534 43.7468C39.689 43.91 39.3765 44.0039 39.0159 44.0284C38.6586 44.0456 38.2603 43.9573 37.8212 43.7636ZM38.6595 42.8743C39.0621 43.0519 39.4495 43.0655 39.822 42.915C40.1944 42.7646 40.4904 42.4405 40.71 41.9428L40.8069 41.7232L39.6315 41.4144C38.7317 41.1748 38.1865 41.2709 37.996 41.7027C37.8926 41.9369 37.907 42.1619 38.0392 42.3776C38.1819 42.5892 38.3887 42.7548 38.6595 42.8743ZM44.2293 46.4598C44.1561 46.4275 44.1052 46.3744 44.0765 46.3006C44.0479 46.2268 44.0497 46.1532 44.082 46.0801L45.9664 41.8093L44.1878 41.0245C44.1146 40.9923 44.0637 40.9392 44.0351 40.8653C44.0065 40.7915 44.0083 40.718 44.0406 40.6448L44.3264 39.997C44.3619 39.9165 44.415 39.8656 44.4856 39.8443C44.5595 39.8157 44.633 39.8175 44.7062 39.8498L49.7015 42.0539C49.782 42.0894 49.8329 42.1425 49.8543 42.2131C49.8861 42.2796 49.8843 42.3531 49.8488 42.4336L49.5629 43.0814C49.5307 43.1546 49.4776 43.2055 49.4037 43.2341C49.3372 43.266 49.2637 43.2642 49.1832 43.2286L47.4046 42.4439L45.5203 46.7146C45.488 46.7878 45.4349 46.8387 45.3611 46.8674C45.2945 46.8992 45.221 46.8974 45.1405 46.8619L44.2293 46.4598ZM56.061 44.8599C56.1269 44.8889 56.1741 44.9404 56.2027 45.0142C56.2346 45.0807 56.236 45.1469 56.2069 45.2128L53.9108 50.4168C53.8785 50.49 53.8255 50.5409 53.7516 50.5695C53.6851 50.6014 53.6116 50.5995 53.5311 50.564L52.5979 50.1523C52.5247 50.12 52.4738 50.0669 52.4451 49.9931C52.4165 49.9192 52.4183 49.8457 52.4506 49.7725L53.9959 46.2703L49.8099 48.7123C49.6777 48.7939 49.5494 48.8072 49.425 48.7523L48.5796 48.3793C48.5064 48.347 48.4539 48.2976 48.422 48.2311C48.4007 48.1605 48.4062 48.0886 48.4385 48.0154L50.7298 42.8224C50.7653 42.7419 50.8184 42.691 50.889 42.6697C50.9628 42.641 51.0364 42.6429 51.1096 42.6752L52.0428 43.0869C52.1159 43.1192 52.1669 43.1723 52.1955 43.2461C52.2241 43.32 52.2223 43.3935 52.19 43.4667L50.6447 46.9689L54.8307 44.5269C54.9702 44.4485 55.0985 44.4352 55.2156 44.4869L56.061 44.8599ZM57.5999 52.4905C56.7948 52.1352 56.2492 51.6278 55.9632 50.9682C55.6844 50.3118 55.7048 49.5819 56.0243 48.7785L56.2071 48.3345L56.4118 47.9002C56.7899 47.1227 57.3153 46.6156 57.988 46.379C58.6681 46.1457 59.4107 46.2067 60.2158 46.5619C60.794 46.817 61.2355 47.1343 61.5403 47.5136C61.8525 47.8961 62.0375 48.2794 62.0954 48.6635C62.1638 49.0435 62.1456 49.3721 62.0407 49.6493C62.0158 49.7258 61.9627 49.7767 61.8815 49.8021C61.8077 49.8307 61.7342 49.8289 61.661 49.7966L60.6839 49.3654C60.6034 49.3299 60.5513 49.2894 60.5276 49.244C60.5071 49.1913 60.498 49.1129 60.5002 49.0089C60.5131 48.6824 60.4555 48.4165 60.3274 48.2113C60.2067 48.0094 60.0072 47.8471 59.7291 47.7244C59.3558 47.5597 59.0114 47.5476 58.6958 47.6882C58.3875 47.8319 58.1195 48.1421 57.8917 48.6188L57.7015 49.0201L57.5526 49.3873C57.1767 50.3581 57.3693 51.0115 58.1305 51.3474C58.416 51.4733 58.6724 51.5165 58.8997 51.4769C59.1303 51.43 59.3634 51.288 59.5991 51.051C59.6639 50.9834 59.7227 50.9394 59.7755 50.9189C59.8355 50.9017 59.9058 50.9109 59.9863 50.9464L60.9634 51.3775C61.0366 51.4098 61.0875 51.4629 61.1162 51.5367C61.1521 51.6138 61.1503 51.6873 61.1107 51.7573C60.983 52.007 60.7578 52.2399 60.4351 52.456C60.1156 52.6648 59.7114 52.7882 59.2226 52.826C58.7337 52.8639 58.1928 52.752 57.5999 52.4905ZM63.1956 54.8282C63.1224 54.796 63.0715 54.7429 63.0429 54.669C63.0142 54.5952 63.0161 54.5217 63.0484 54.4485L64.9327 50.1777L63.1542 49.393C63.081 49.3607 63.0301 49.3076 63.0014 49.2338C62.9728 49.1599 62.9746 49.0864 63.0069 49.0132L63.2927 48.3655C63.3283 48.285 63.3813 48.2341 63.4519 48.2128C63.5258 48.1841 63.5993 48.186 63.6725 48.2183L68.6678 50.4223C68.7484 50.4579 68.7993 50.5109 68.8206 50.5815C68.8524 50.6481 68.8506 50.7216 68.8151 50.8021L68.5293 51.4498C68.497 51.523 68.4439 51.5739 68.3701 51.6026C68.3036 51.6344 68.23 51.6326 68.1495 51.5971L66.371 50.8123L64.4866 55.0831C64.4543 55.1563 64.4012 55.2072 64.3274 55.2358C64.2609 55.2677 64.1873 55.2658 64.1068 55.2303L63.1956 54.8282ZM75.0273 53.2283C75.0932 53.2574 75.1404 53.3088 75.1691 53.3827C75.2009 53.4492 75.2023 53.5154 75.1733 53.5813L72.8771 58.7852C72.8448 58.8584 72.7918 58.9093 72.7179 58.9379C72.6514 58.9698 72.5779 58.968 72.4974 58.9324L71.5642 58.5207C71.491 58.4884 71.4401 58.4353 71.4115 58.3615C71.3828 58.2876 71.3847 58.2141 71.417 58.1409L72.9622 54.6387L68.7762 57.0807C68.644 57.1623 68.5157 57.1756 68.3913 57.1207L67.5459 56.7477C67.4728 56.7154 67.4202 56.666 67.3884 56.5995C67.3671 56.5289 67.3726 56.457 67.4049 56.3838L69.6961 51.1908C69.7317 51.1103 69.7847 51.0594 69.8553 51.0381C69.9292 51.0095 70.0027 51.0113 70.0759 51.0436L71.0091 51.4554C71.0823 51.4876 71.1332 51.5407 71.1618 51.6146C71.1904 51.6884 71.1886 51.7619 71.1563 51.8351L69.611 55.3373L73.797 52.8953C73.9365 52.817 74.0648 52.8036 74.182 52.8553L75.0273 53.2283ZM79.5755 61.6489C79.5894 61.7162 79.5867 61.7719 79.5674 61.8158C79.5415 61.8744 79.4986 61.9123 79.4385 61.9295C79.3785 61.9467 79.3155 61.9408 79.2496 61.9117L78.1188 61.4128C78.0456 61.3805 77.9919 61.3436 77.9577 61.3023C77.9267 61.2537 77.9021 61.1904 77.8841 61.1124L77.4014 58.3418L76.6 57.9882L75.699 60.0303C75.6667 60.1035 75.6136 60.1544 75.5398 60.183C75.4732 60.2149 75.3997 60.213 75.3192 60.1775L74.408 59.7754C74.3348 59.7431 74.2839 59.6901 74.2552 59.6162C74.2266 59.5424 74.2284 59.4689 74.2607 59.3957L76.5472 54.2137C76.5827 54.1332 76.6358 54.0823 76.7064 54.061C76.7802 54.0323 76.8537 54.0342 76.9269 54.0665L77.8382 54.4685C77.9187 54.504 77.9696 54.5571 77.9909 54.6277C78.0227 54.6942 78.0209 54.7678 77.9854 54.8483L77.1231 56.8025L77.9356 57.161L80.1431 55.6954C80.2128 55.6562 80.2761 55.6316 80.3329 55.6217C80.3898 55.6118 80.4511 55.6214 80.517 55.6505L81.527 56.0962C81.6002 56.1284 81.6507 56.1726 81.6785 56.2286C81.7062 56.2845 81.7072 56.3418 81.6814 56.4003C81.6717 56.4223 81.6324 56.4618 81.5635 56.5188L78.9388 58.2463L79.5755 61.6489ZM82.0474 63.2773C81.6741 63.1126 81.3624 62.8876 81.1122 62.6024C80.8726 62.313 80.7179 61.9999 80.6479 61.663C80.5853 61.3293 80.6218 61.0088 80.7574 60.7014C80.977 60.2037 81.3559 59.8899 81.8941 59.7601C82.4323 59.6303 83.0769 59.6656 83.828 59.8658L85.429 60.3099L85.5307 60.0793C85.6696 59.7646 85.694 59.4912 85.6041 59.2591C85.5141 59.0271 85.2934 58.8335 84.9421 58.6785C84.7006 58.5719 84.4873 58.5303 84.3021 58.5535C84.117 58.5768 83.9558 58.615 83.8187 58.6681C83.6921 58.7172 83.6077 58.7499 83.5655 58.7663C83.4975 58.8412 83.4232 58.8609 83.3427 58.8254L82.4864 58.4475C82.4205 58.4185 82.3717 58.3707 82.3398 58.3041C82.3153 58.2408 82.3191 58.1726 82.3514 58.0994C82.4395 57.9197 82.6177 57.7535 82.8862 57.6009C83.1652 57.4442 83.5212 57.3607 83.9541 57.3506C84.3902 57.3332 84.8718 57.4408 85.3988 57.6733C86.2624 58.0544 86.8063 58.5261 87.0304 59.0884C87.2545 59.6507 87.2276 60.2466 86.9499 60.876L85.4288 64.3234C85.3966 64.3965 85.3435 64.4475 85.2696 64.4761C85.2031 64.5079 85.1296 64.5061 85.0491 64.4706L84.1379 64.0685C84.0647 64.0362 84.0137 63.9832 83.9851 63.9093C83.9565 63.8355 83.9583 63.762 83.9906 63.6888L84.1795 63.2606C83.9152 63.4238 83.6027 63.5176 83.2421 63.5421C82.8848 63.5593 82.4865 63.4711 82.0474 63.2773ZM82.8857 62.388C83.2882 62.5657 83.6757 62.5792 84.0482 62.4288C84.4206 62.2783 84.7166 61.9542 84.9362 61.4565L85.0331 61.2369L83.8577 60.9282C82.9579 60.6885 82.4127 60.7846 82.2221 61.2165C82.1188 61.4507 82.1332 61.6757 82.2654 61.8914C82.4081 62.103 82.6149 62.2685 82.8857 62.388Z" fill="#400E22"/>
</svg>
