<svg width="387" height="260" viewBox="0 0 387 260" fill="none" xmlns="http://www.w3.org/2000/svg">
<path d="M361.229 77.8042C354.187 55.2281 334.163 40.3268 311.971 38.5882C311.119 38.4512 310.337 37.8895 310.108 37.1553C305.929 23.7565 291.672 16.3206 278.397 20.4615L61.1883 88.2113C47.9124 92.3522 40.4113 106.575 44.5333 119.79C44.8196 120.708 44.4382 121.431 43.8151 122.028C26.6047 136.258 18.6025 159.901 25.6443 182.477C32.686 205.053 52.6535 219.771 74.9019 221.693C75.754 221.83 76.5361 222.392 76.7651 223.126C80.8871 236.341 95.1437 243.777 108.42 239.636L325.628 171.887C338.904 167.746 346.405 153.523 342.283 140.308C341.997 139.39 342.378 138.667 343.001 138.07C360.211 123.84 368.214 100.197 361.229 77.8042Z" fill="#F6C548" stroke="#400E22" stroke-width="3" stroke-miterlimit="10" stroke-linecap="round" stroke-linejoin="round"/>
<path d="M155.496 132.55C155.274 132.619 155.06 132.6 154.855 132.493C154.651 132.386 154.514 132.221 154.444 131.998L148.702 113.588L142.521 115.516C142.298 115.585 142.084 115.566 141.88 115.459C141.675 115.352 141.535 115.176 141.458 114.931L140.677 112.425C140.6 112.18 140.604 111.958 140.689 111.761C140.797 111.556 140.973 111.416 141.218 111.339L158.292 106.014C158.537 105.937 158.761 105.953 158.966 106.06C159.171 106.167 159.311 106.343 159.387 106.589L160.169 109.094C160.246 109.339 160.23 109.564 160.123 109.769C160.016 109.973 159.839 110.114 159.594 110.19L153.446 112.108L159.189 130.518C159.258 130.741 159.239 130.955 159.132 131.159C159.047 131.357 158.882 131.494 158.637 131.57L155.496 132.55ZM170.213 127.96C169.99 128.029 169.776 128.01 169.572 127.903C169.367 127.796 169.23 127.631 169.161 127.408L164.242 111.637C164.165 111.392 164.184 111.178 164.298 110.996C164.406 110.792 164.571 110.655 164.793 110.585L172.211 108.272C174.527 107.549 176.397 107.43 177.819 107.915C179.264 108.394 180.222 109.39 180.695 110.905C180.973 111.796 181.028 112.561 180.861 113.199C180.686 113.816 180.328 114.429 179.784 115.038C180.675 115.152 181.443 115.499 182.089 116.079C182.757 116.653 183.23 117.386 183.507 118.277C184.015 119.903 183.802 121.338 182.87 122.582C181.939 123.825 180.314 124.809 177.998 125.531L170.213 127.96ZM174.353 115.376C175.244 115.098 175.887 114.69 176.281 114.151C176.675 113.613 176.765 112.998 176.55 112.308C176.341 111.639 175.947 111.237 175.366 111.1C174.786 110.964 174.028 111.041 173.092 111.333L169.25 112.531L170.511 116.574L174.353 115.376ZM176.782 122.574C177.695 122.289 178.356 121.9 178.764 121.406C179.172 120.912 179.269 120.32 179.053 119.629C178.824 118.894 178.416 118.447 177.828 118.288C177.256 118.1 176.48 118.159 175.5 118.464L171.491 119.715L172.773 123.825L176.782 122.574ZM196.778 120.04C194.15 120.86 191.914 120.824 190.072 119.932C188.229 119.04 186.884 117.431 186.036 115.105L185.544 113.645L185.119 112.164C184.501 109.791 184.707 107.71 185.739 105.922C186.763 104.112 188.567 102.803 191.15 101.997C193.712 101.198 195.929 101.252 197.8 102.16C199.665 103.045 201.018 104.639 201.859 106.943C201.964 107.204 202.128 107.69 202.351 108.403C202.573 109.116 202.715 109.609 202.776 109.883C203.401 112.279 203.209 114.368 202.2 116.149C201.192 117.93 199.384 119.227 196.778 120.04ZM195.726 116.665C196.906 116.297 197.694 115.648 198.088 114.719C198.505 113.782 198.513 112.594 198.113 111.155C198.066 110.925 197.941 110.487 197.74 109.841C197.538 109.195 197.392 108.764 197.3 108.548C196.811 107.137 196.129 106.164 195.253 105.631C194.371 105.075 193.351 104.977 192.193 105.339C191.012 105.707 190.217 106.37 189.807 107.329C189.39 108.266 189.382 109.454 189.782 110.893L190.155 112.207L190.595 113.499C191.084 114.911 191.767 115.884 192.642 116.417C193.517 116.951 194.545 117.034 195.726 116.665ZM217.275 94.2154C217.52 94.1389 217.734 94.1578 217.916 94.2721C218.114 94.3571 218.251 94.5221 218.327 94.7671L223.246 110.538C223.316 110.761 223.297 110.974 223.19 111.179C223.105 111.376 222.94 111.513 222.695 111.59L219.788 112.496C219.565 112.566 219.351 112.547 219.147 112.44C218.942 112.332 218.805 112.167 218.736 111.945L217.152 106.866L214.178 107.794L212.615 114.184C212.519 114.581 212.292 114.834 211.936 114.946L209.062 115.842C208.884 115.897 208.707 115.879 208.532 115.787C208.357 115.695 208.241 115.56 208.186 115.382C208.123 115.182 208.134 114.983 208.219 114.785L210.019 108.211C208.833 108.092 207.837 107.682 207.031 106.98C206.226 106.278 205.639 105.336 205.271 104.156C204.687 102.285 204.829 100.701 205.695 99.4039C206.577 98.0779 208.143 97.064 210.392 96.3622L217.275 94.2154ZM214.634 98.5589L211.493 99.5386C210.446 99.8651 209.748 100.291 209.398 100.815C209.042 101.318 209.002 102.014 209.28 102.905C209.537 103.729 209.973 104.302 210.586 104.624C211.2 104.946 211.963 104.965 212.877 104.68L216.218 103.638L214.634 98.5589ZM115.132 182.17C112.681 182.934 110.509 182.866 108.615 181.966C106.744 181.059 105.388 179.416 104.549 177.038L104.098 175.712L103.715 174.365C103.054 171.932 103.235 169.81 104.259 167.999C105.305 166.182 107.054 164.891 109.504 164.127C111.264 163.578 112.842 163.428 114.24 163.676C115.659 163.918 116.801 164.405 117.665 165.138C118.544 165.841 119.135 166.598 119.437 167.408C119.528 167.624 119.509 167.838 119.38 168.049C119.273 168.254 119.107 168.391 118.885 168.46L115.911 169.388C115.666 169.464 115.474 169.475 115.335 169.421C115.189 169.344 115.018 169.19 114.823 168.957C114.225 168.215 113.589 167.741 112.914 167.536C112.261 167.324 111.511 167.35 110.665 167.614C109.529 167.969 108.749 168.603 108.326 169.517C107.924 170.425 107.93 171.62 108.344 173.104L108.697 174.351L109.074 175.443C110.111 178.297 111.788 179.363 114.104 178.641C114.973 178.37 115.619 177.972 116.042 177.449C116.459 176.904 116.699 176.145 116.762 175.172C116.775 174.899 116.819 174.69 116.896 174.543C116.995 174.39 117.167 174.276 117.412 174.199L120.385 173.272C120.608 173.202 120.822 173.221 121.026 173.328C121.253 173.429 121.39 173.594 121.437 173.823C121.636 174.617 121.588 175.561 121.294 176.655C120.993 177.726 120.341 178.773 119.34 179.794C118.339 180.815 116.936 181.607 115.132 182.17ZM131.91 176.57C131.687 176.639 131.473 176.62 131.269 176.513C131.064 176.406 130.927 176.241 130.858 176.018L126.803 163.021L121.391 164.709C121.168 164.778 120.954 164.759 120.75 164.652C120.545 164.545 120.408 164.38 120.339 164.157L119.724 162.186C119.647 161.941 119.666 161.727 119.781 161.545C119.888 161.34 120.053 161.203 120.276 161.134L135.478 156.392C135.723 156.315 135.937 156.334 136.119 156.449C136.317 156.534 136.454 156.699 136.53 156.944L137.145 158.915C137.215 159.138 137.196 159.351 137.088 159.556C137.003 159.754 136.838 159.891 136.593 159.967L131.181 161.655L135.235 174.653C135.304 174.876 135.285 175.089 135.178 175.294C135.093 175.491 134.928 175.628 134.683 175.705L131.91 176.57ZM149.53 171.44C148.394 171.795 147.278 171.898 146.181 171.752C145.1 171.576 144.159 171.185 143.359 170.579C142.581 169.966 142.046 169.192 141.754 168.256C141.282 166.742 141.512 165.325 142.446 164.008C143.379 162.69 144.863 161.531 146.897 160.53L151.266 158.433L151.047 157.732C150.748 156.774 150.278 156.126 149.635 155.789C148.992 155.452 148.136 155.45 147.067 155.784C146.331 156.013 145.783 156.331 145.421 156.737C145.059 157.143 144.778 157.536 144.579 157.916C144.395 158.267 144.272 158.501 144.211 158.618C144.205 158.913 144.08 159.098 143.835 159.175L141.229 159.988C141.028 160.05 140.829 160.039 140.631 159.954C140.456 159.862 140.334 159.705 140.264 159.482C140.113 158.918 140.185 158.211 140.482 157.361C140.795 156.481 141.417 155.615 142.348 154.762C143.273 153.887 144.537 153.2 146.141 152.699C148.77 151.88 150.869 151.872 152.44 152.678C154.011 153.483 155.096 154.844 155.693 156.759L158.966 167.251C159.035 167.473 159.016 167.687 158.909 167.892C158.824 168.089 158.659 168.226 158.414 168.303L155.641 169.168C155.418 169.237 155.204 169.218 155 169.111C154.795 169.004 154.658 168.839 154.589 168.616L154.182 167.313C153.915 168.179 153.408 168.984 152.663 169.73C151.911 170.453 150.867 171.023 149.53 171.44ZM149.666 167.878C150.891 167.496 151.768 166.783 152.298 165.738C152.827 164.693 152.856 163.413 152.383 161.898L152.175 161.23L149 162.806C146.564 164.006 145.55 165.264 145.96 166.578C146.183 167.291 146.646 167.757 147.35 167.977C148.07 168.168 148.842 168.135 149.666 167.878ZM168.781 165.069C168.558 165.139 168.344 165.12 168.14 165.013C167.935 164.905 167.798 164.74 167.729 164.517L163.675 151.52L158.262 153.208C158.039 153.278 157.825 153.259 157.621 153.152C157.416 153.044 157.279 152.879 157.21 152.657L156.595 150.685C156.518 150.44 156.537 150.227 156.652 150.044C156.759 149.84 156.924 149.703 157.147 149.633L172.349 144.891C172.594 144.815 172.808 144.834 172.99 144.948C173.188 145.033 173.325 145.198 173.401 145.443L174.016 147.414C174.086 147.637 174.067 147.851 173.959 148.055C173.874 148.253 173.709 148.39 173.464 148.467L168.052 150.155L172.106 163.152C172.175 163.375 172.156 163.589 172.049 163.793C171.964 163.991 171.799 164.128 171.554 164.204L168.781 165.069ZM191.703 138.855C191.904 138.792 192.106 138.814 192.311 138.922C192.509 139.007 192.639 139.149 192.701 139.35L197.641 155.187C197.711 155.41 197.692 155.624 197.584 155.828C197.499 156.026 197.334 156.163 197.089 156.239L194.249 157.125C194.026 157.195 193.813 157.176 193.608 157.069C193.404 156.961 193.267 156.796 193.197 156.574L189.873 145.915L185.362 159.311C185.228 159.744 184.972 160.019 184.593 160.137L182.02 160.94C181.798 161.009 181.587 161.001 181.39 160.916C181.207 160.802 181.082 160.634 181.012 160.411L176.083 144.607C176.006 144.362 176.025 144.148 176.139 143.966C176.247 143.761 176.412 143.624 176.634 143.555L179.474 142.669C179.697 142.599 179.911 142.618 180.115 142.726C180.32 142.833 180.457 142.998 180.526 143.221L183.851 153.879L188.362 140.483C188.518 140.044 188.774 139.768 189.131 139.657L191.703 138.855ZM209.724 152.665C207.274 153.429 205.102 153.361 203.208 152.461C201.336 151.554 199.98 149.912 199.141 147.534L198.691 146.208L198.307 144.861C197.646 142.427 197.827 140.305 198.851 138.495C199.898 136.678 201.646 135.387 204.096 134.623C205.856 134.074 207.434 133.923 208.832 134.172C210.252 134.414 211.393 134.901 212.257 135.633C213.137 136.337 213.727 137.094 214.029 137.904C214.121 138.12 214.102 138.333 213.972 138.545C213.865 138.749 213.7 138.886 213.477 138.956L210.503 139.883C210.258 139.96 210.066 139.971 209.927 139.916C209.781 139.84 209.61 139.685 209.416 139.453C208.818 138.71 208.181 138.237 207.506 138.032C206.853 137.82 206.104 137.846 205.257 138.11C204.121 138.464 203.341 139.099 202.918 140.013C202.516 140.92 202.523 142.116 202.937 143.6L203.289 144.847L203.666 145.939C204.703 148.793 206.38 149.859 208.696 149.136C209.565 148.865 210.211 148.468 210.635 147.945C211.051 147.399 211.291 146.64 211.354 145.667C211.367 145.395 211.412 145.185 211.488 145.039C211.587 144.886 211.759 144.771 212.004 144.695L214.978 143.767C215.201 143.698 215.414 143.717 215.619 143.824C215.846 143.924 215.983 144.089 216.03 144.319C216.228 145.112 216.181 146.056 215.886 147.15C215.585 148.222 214.934 149.268 213.932 150.289C212.931 151.31 211.528 152.102 209.724 152.665ZM226.502 147.065C226.279 147.135 226.065 147.116 225.861 147.009C225.656 146.901 225.519 146.736 225.45 146.514L221.396 133.516L215.983 135.204C215.76 135.274 215.547 135.255 215.342 135.148C215.137 135.04 215 134.875 214.931 134.653L214.316 132.681C214.24 132.436 214.259 132.223 214.373 132.04C214.48 131.836 214.645 131.699 214.868 131.629L230.07 126.887C230.316 126.811 230.529 126.83 230.711 126.944C230.909 127.029 231.046 127.194 231.123 127.439L231.737 129.411C231.807 129.633 231.788 129.847 231.681 130.052C231.596 130.249 231.431 130.386 231.186 130.463L225.773 132.151L229.827 145.148C229.896 145.371 229.877 145.585 229.77 145.789C229.685 145.987 229.52 146.124 229.275 146.2L226.502 147.065ZM249.425 120.851C249.625 120.788 249.828 120.811 250.032 120.918C250.23 121.003 250.36 121.146 250.422 121.346L255.362 137.184C255.432 137.406 255.413 137.62 255.306 137.824C255.221 138.022 255.056 138.159 254.811 138.236L251.97 139.121C251.748 139.191 251.534 139.172 251.329 139.065C251.125 138.957 250.988 138.792 250.918 138.57L247.594 127.911L243.083 141.307C242.949 141.74 242.693 142.015 242.314 142.133L239.742 142.936C239.519 143.005 239.309 142.997 239.111 142.912C238.929 142.798 238.803 142.63 238.733 142.407L233.804 126.603C233.727 126.358 233.746 126.144 233.861 125.962C233.968 125.757 234.133 125.62 234.356 125.551L237.196 124.665C237.418 124.596 237.632 124.614 237.837 124.722C238.041 124.829 238.178 124.994 238.248 125.217L241.572 135.875L246.083 122.48C246.239 122.04 246.495 121.764 246.852 121.653L249.425 120.851ZM275.571 130.623C275.731 130.745 275.832 130.872 275.874 131.006C275.93 131.184 275.908 131.349 275.809 131.503C275.71 131.656 275.56 131.763 275.36 131.826L271.918 132.899C271.696 132.969 271.507 132.991 271.353 132.966C271.191 132.918 271.016 132.826 270.827 132.69L264.451 127.529L262.012 128.29L263.95 134.505C264.02 134.728 264.001 134.941 263.893 135.146C263.808 135.343 263.643 135.48 263.398 135.557L260.625 136.422C260.402 136.491 260.189 136.472 259.984 136.365C259.78 136.258 259.642 136.093 259.573 135.87L254.654 120.099C254.578 119.854 254.596 119.641 254.711 119.459C254.818 119.254 254.983 119.117 255.206 119.047L257.979 118.182C258.224 118.106 258.438 118.125 258.62 118.239C258.818 118.324 258.955 118.489 259.031 118.734L260.886 124.682L263.359 123.91L265.396 116.456C265.474 116.236 265.566 116.06 265.672 115.93C265.778 115.799 265.931 115.702 266.132 115.64L269.206 114.681C269.428 114.611 269.624 114.611 269.792 114.681C269.961 114.751 270.073 114.875 270.128 115.053C270.149 115.12 270.139 115.282 270.097 115.539L267.645 124.37L275.571 130.623ZM284.126 129.458C282.99 129.813 281.874 129.916 280.777 129.77C279.695 129.594 278.755 129.203 277.955 128.597C277.177 127.984 276.642 127.21 276.35 126.274C275.878 124.76 276.108 123.343 277.041 122.026C277.975 120.708 279.459 119.549 281.493 118.547L285.862 116.451L285.643 115.75C285.344 114.792 284.873 114.144 284.23 113.807C283.588 113.47 282.732 113.468 281.662 113.802C280.927 114.031 280.379 114.349 280.017 114.755C279.654 115.161 279.374 115.554 279.174 115.934C278.991 116.285 278.868 116.519 278.807 116.636C278.801 116.931 278.675 117.116 278.43 117.193L275.824 118.006C275.624 118.068 275.425 118.057 275.227 117.972C275.052 117.88 274.929 117.723 274.86 117.5C274.709 116.936 274.781 116.229 275.078 115.379C275.39 114.499 276.012 113.633 276.944 112.78C277.869 111.905 279.133 111.218 280.737 110.717C283.365 109.898 285.465 109.89 287.036 110.696C288.607 111.501 289.692 112.862 290.289 114.777L293.562 125.269C293.631 125.491 293.612 125.705 293.505 125.91C293.42 126.107 293.255 126.244 293.01 126.321L290.237 127.186C290.014 127.255 289.8 127.236 289.596 127.129C289.391 127.022 289.254 126.857 289.184 126.634L288.778 125.331C288.51 126.197 288.004 127.002 287.259 127.748C286.507 128.471 285.463 129.041 284.126 129.458ZM284.262 125.896C285.487 125.514 286.364 124.801 286.893 123.756C287.423 122.71 287.452 121.431 286.979 119.916L286.771 119.248L283.596 120.824C281.16 122.024 280.146 123.281 280.556 124.596C280.779 125.308 281.242 125.775 281.946 125.995C282.666 126.186 283.437 126.153 284.262 125.896Z" fill="#400E22"/>
<path d="M240.733 96.9954L240.662 97.0011L268.904 88.3808L262.742 99.9885C262.44 100.556 262.381 101.217 262.569 101.834C262.758 102.452 263.175 102.964 263.742 103.266L265.546 104.227C266.113 104.529 266.765 104.592 267.382 104.404C268 104.215 268.506 103.8 268.808 103.233L279.382 83.3701C279.685 82.8009 279.746 82.1472 279.556 81.5297C279.368 80.9078 278.952 80.3993 278.383 80.097L258.519 69.5234C257.952 69.2219 257.3 69.1598 256.682 69.3484C256.065 69.5368 255.559 69.9527 255.257 70.519L254.297 72.3228C253.995 72.8892 253.933 73.5412 254.122 74.1589C254.31 74.7761 254.716 75.252 255.283 75.5534L266.993 81.7604L238.685 90.4008C237.413 90.789 236.679 92.2116 237.067 93.4829L237.664 95.4377C238.052 96.709 239.461 97.3837 240.733 96.9954Z" fill="#410F22"/>
</svg>
