<svg width="69" height="71" viewBox="0 0 69 71" fill="none" xmlns="http://www.w3.org/2000/svg">
<path d="M60.352 70.7012H7.96898C3.57975 70.7012 0 67.0315 0 62.4984V8.40645C0 3.89129 3.57975 0.203613 7.96898 0.203613H60.37C64.7592 0.203613 68.3389 3.8733 68.3389 8.40645V62.4984C68.321 67.0135 64.7592 70.7012 60.352 70.7012Z" fill="white"/>
<path d="M37.4523 60.3217V38.1057H44.6837L45.763 29.4532H37.4523V23.9306C37.4523 21.4302 38.1178 19.7033 41.6256 19.7033H46.0688V11.9502C45.2953 11.8423 42.669 11.6084 39.5929 11.6084C33.189 11.6084 28.7997 15.6379 28.7997 23.0492V29.4532H21.5503V38.1057H28.7997V60.3217H37.4523Z" fill="#0EC645"/>
</svg>
