<svg width="69" height="71" viewBox="0 0 69 71" fill="none" xmlns="http://www.w3.org/2000/svg">
<path d="M60.37 70.4976H7.96898C3.57975 70.4976 0 66.8279 0 62.2948V8.20283C0 3.68768 3.57975 0 7.96898 0H60.37C64.7592 0 68.339 3.66969 68.339 8.20283V62.2948C68.339 66.8099 64.7592 70.4976 60.37 70.4976Z" fill="white"/>
<g clip-path="url(#clip0)">
<path d="M26.4661 54C43.8246 54 53.319 39.7667 53.319 27.4237C53.319 27.0194 53.3098 26.6169 53.2914 26.2163C55.1333 24.8979 56.7359 23.2535 58 21.3796C56.309 22.1226 54.4893 22.6234 52.5794 22.8492C54.5279 21.6928 56.0238 19.8627 56.7286 17.6829C54.9051 18.7537 52.8848 19.5313 50.7357 19.9501C49.0153 18.1363 46.5626 17 43.8486 17C38.6358 17 34.4094 21.1829 34.4094 26.3401C34.4094 27.074 34.4922 27.7861 34.6541 28.4689C26.812 28.0792 19.855 24.3625 15.2016 18.71C14.3902 20.0903 13.9228 21.6947 13.9228 23.4046C13.9228 26.6461 15.5898 29.5051 18.1217 31.1787C16.5742 31.1313 15.1188 30.7107 13.8474 30.0095C13.8455 30.0478 13.8455 30.0879 13.8455 30.1279C13.8455 34.6514 17.0986 38.4282 21.4171 39.2841C20.6241 39.4972 19.7906 39.6119 18.9294 39.6119C18.3222 39.6119 17.7298 39.5518 17.1557 39.4426C18.3572 43.1539 21.8403 45.8545 25.973 45.9291C22.7419 48.4349 18.6737 49.9281 14.2522 49.9281C13.4904 49.9281 12.7397 49.8844 12 49.7989C16.1768 52.4539 21.1356 54 26.4661 54Z" fill="#0EC645"/>
</g>


</svg>
