<svg width="69" height="71" viewBox="0 0 69 71" fill="none" xmlns="http://www.w3.org/2000/svg">
<path d="M60.37 70.4976H7.96898C3.57974 70.4976 0 66.8099 0 62.2948V8.20283C0 3.66969 3.57974 0 7.96898 0H60.37C64.7592 0 68.339 3.66969 68.339 8.20283V62.2948C68.339 66.8099 64.7592 70.4976 60.37 70.4976Z" fill="white"/>
<path d="M33.6569 49.6846H36.607C36.607 49.6846 37.5064 49.5767 37.9562 49.073C38.3699 48.6233 38.3699 47.7418 38.3699 47.7418C38.3699 47.7418 38.3159 43.6404 40.1508 43.0468C41.9676 42.4531 44.3062 47.0043 46.7706 48.7492C48.6234 50.0803 50.0445 49.7925 50.0445 49.7925L56.6644 49.6846C56.6644 49.6846 60.1362 49.4687 58.4812 46.6625C58.3553 46.4286 57.5278 44.5758 53.5703 40.7982C49.4329 36.8227 49.9726 37.4703 54.9734 30.5986C58.0315 26.4072 59.2367 23.8529 58.841 22.7555C58.4812 21.7122 56.2326 21.982 56.2326 21.982L48.8393 22C48.8393 22 48.2996 21.9281 47.8859 22.1799C47.4901 22.4138 47.2383 23.0074 47.2383 23.0074C47.2383 23.0074 46.0511 26.2274 44.504 29.0156C41.1941 34.8259 39.845 35.1318 39.3053 34.772C38.0461 33.9265 38.3519 31.3901 38.3519 29.5912C38.3519 23.9608 39.1794 21.6223 36.7509 20.9927C35.9414 20.7768 35.3478 20.6509 33.2791 20.6509C30.6168 20.6329 28.3682 20.6509 27.109 21.2985C26.2635 21.7302 25.6159 22.6836 25.9937 22.7376C26.4794 22.8095 27.5947 23.0614 28.1883 23.8888C28.9618 24.9502 28.9079 27.3606 28.9079 27.3606C28.9079 27.3606 29.3396 33.9805 27.8825 34.808C26.8751 35.3656 25.508 34.2143 22.5578 28.9437C21.0288 26.2274 19.8955 23.2592 19.8955 23.2592C19.8955 23.2592 19.6617 22.7016 19.2839 22.4138C18.8162 22.036 18.1506 21.9281 18.1506 21.9281L11.0631 21.982C11.0631 21.982 10.0018 22 9.624 22.4857C9.28221 22.9174 9.60601 23.7989 9.60601 23.7989C9.60601 23.7989 15.1285 37.1645 21.4246 43.9102C27.145 50.0803 33.6569 49.6846 33.6569 49.6846Z" fill="#0EC645"/>
</svg>
